<svg width="51" height="50" viewBox="0 0 51 50" fill="none" xmlns="http://www.w3.org/2000/svg">
<path fill-rule="evenodd" clip-rule="evenodd" d="M25.4191 0C39.335 0 50.5 11.165 50.5 24.9191C50.5 38.835 39.335 50 25.4191 50C11.665 50 0.5 38.835 0.5 24.9191C0.5 11.165 11.665 0 25.4191 0ZM31.568 29.7735C28.8172 33.3333 23.801 33.9806 20.4029 31.2298C17.0049 28.6408 16.5194 23.6246 19.2702 20.0647C22.1828 16.6667 27.199 16.0194 30.5971 18.6084C33.9951 21.3592 34.4806 26.3754 31.568 29.7735ZM18.2994 46.1165L27.8463 36.8932C24.2864 37.7023 20.5647 37.055 17.6521 34.6278C14.254 32.0388 12.7977 27.6699 13.2832 23.6246L4.70712 33.0097C4.70712 33.0097 3.57443 30.9061 3.25081 27.0227L18.2994 15.2104C22.8301 11.9741 28.979 11.8123 33.3479 15.2104C38.2023 19.0939 39.1731 26.2136 35.6133 31.5534L24.61 47.2492C22.9919 47.2492 19.7557 46.7638 18.2994 46.1165Z" fill="#00B3E0"/>
</svg>
