<svg width="128" height="50" viewBox="0 0 128 50" fill="none" xmlns="http://www.w3.org/2000/svg">
<path d="M87.785 4.43772L87.7565 4.16263L87.3122 4.20075L87.3405 4.47558L87.785 4.43772ZM90.7722 11.6441L90.7817 11.7958L91.0937 11.7675C91.0842 11.6727 91.122 11.521 91.1882 11.3314L91.1598 11.0563C91.0275 11.0658 90.895 11.2649 90.7722 11.6441ZM79.116 20.7186C79.0972 20.4626 78.303 19.4671 76.7337 17.7128C76.7055 17.3905 77.2442 16.9068 78.3502 16.2716L81.5077 13.5123C82.2167 12.6113 82.6327 11.1511 82.7557 9.12193L82.7177 8.65727C82.595 7.25402 81.5835 6.12559 79.6645 5.26272C78.53 4.49464 76.488 4.06785 73.5385 3.99212C71.0995 4.20075 67.9137 5.0729 63.9905 6.61859C62.9127 7.3962 61.684 8.17381 60.3037 8.95117L60.3225 9.18839C60.4077 9.17886 60.54 9.13146 60.6912 9.02715C60.852 9.00809 60.9465 9.08407 60.956 9.23578L61.1922 9.11241L61.3057 9.10288L61.3152 9.20719C61.3247 9.33057 60.4737 10.0039 58.7532 11.208L58.8857 11.4545L58.7722 11.464L58.4885 11.3597C58.498 11.445 58.3752 11.5019 58.1387 11.521L58.1482 11.6253L58.4225 11.9666C58.3375 11.9761 58.205 11.9382 58.0255 11.8718C57.6282 11.9096 57.2407 12.1183 56.8532 12.5165L57.014 11.8149C57.5905 9.32104 57.9875 7.11158 58.1955 5.19627L58.1672 5.0729C57.7702 4.81687 57.3825 4.45653 57.0232 4.00139C57.0327 3.7075 57.0327 3.53698 57.0232 3.49887L56.995 3.39455L56.8815 3.42314C55.6337 5.30059 53.2325 8.50556 49.6685 13.0381C46.9555 16.2621 45.5562 18.0543 45.4712 18.4146C44.3652 19.5619 43.8357 20.2542 43.8925 20.4912C43.5995 20.6808 43.4765 20.8703 43.5237 21.079C43.4387 21.098 43.382 21.0697 43.363 20.9842C42.8905 21.7523 42.1907 22.2453 41.255 22.4634L40.2717 22.6911C40.1395 22.7195 40.0732 22.8142 40.0827 22.9755L40.111 23.0989L40.4797 23.0133L40.5082 23.1177L39.6762 23.4401L38.2015 23.7814L37.4262 23.8288C37.3127 23.9427 38.0407 23.8195 37.7572 23.8857L36.793 24.1134C36.2067 24.2461 35.8855 24.1987 35.8287 23.9617L35.7152 23.9901C35.7342 24.0944 35.7435 24.1704 35.7247 24.2366L35.668 23.9996L34.8927 24.1796C34.836 23.8195 33.7867 22.5108 31.7542 20.2542C31.7165 19.8179 32.4347 19.1825 33.9002 18.3577L38.0407 14.7069C38.9672 13.5123 39.5155 11.5967 39.6952 8.9607L39.6385 8.34433C39.4777 6.48593 38.1352 4.98764 35.6112 3.83088C34.1175 2.8163 31.4327 2.27566 27.557 2.1904C24.3427 2.46548 20.1452 3.61271 14.9837 5.61354C13.5657 6.64692 11.9492 7.67103 10.1342 8.68561L10.1625 9.00809C10.2855 8.99856 10.446 8.93236 10.6445 8.81851C10.8525 8.79946 10.966 8.89424 10.985 9.08407L11.3062 8.90377L11.467 8.89424L11.4765 9.04595C11.486 9.19766 10.361 10.0796 8.08272 11.6915L8.26222 11.9761L8.10172 11.9856L7.75172 11.8623C7.76122 11.957 7.60047 12.0235 7.26972 12.0518L7.28847 12.2226L7.66672 12.6399C7.54397 12.6494 7.37372 12.6113 7.15622 12.5355C6.41897 12.602 5.70047 13.1329 4.99147 14.1382L5.17097 14.4225C5.78547 13.8535 6.14472 13.5692 6.24872 13.5597L6.28647 14.0243C6.18247 14.0338 6.02172 14.1 5.80447 14.2139L6.19197 14.8019C6.924 14.0082 7.75306 13.3104 8.65947 12.7251C9.10372 12.839 9.33997 12.9811 9.34947 13.1329L9.68972 13.1045C12.1287 11.2933 14.5395 9.9848 16.9312 9.17886L16.9595 9.50109C16.5152 10.1648 16.2127 10.5064 16.052 10.5252C16.071 10.7529 16.1465 10.952 16.2882 11.1228C16.3262 11.5305 15.239 14.2803 13.0362 19.3628C8.03547 31.1776 3.83797 39.9202 0.425469 45.5718C0.434719 45.6854 0.500969 45.8371 0.623969 46.0269C1.46522 45.8278 1.99472 45.6192 2.22147 45.4198L2.40122 45.401L2.42947 45.7235L2.74147 45.6949L3.06297 45.5149C3.07247 45.6097 3.17647 45.6571 3.39372 45.638L3.42222 45.9605C3.45047 46.2734 3.27097 46.7474 2.89272 47.4019C2.55247 47.7905 2.18372 48.606 1.79622 49.8483L1.80547 50L2.11747 49.9714C3.47897 48.4448 4.50922 46.9465 5.21822 45.4863C9.18872 44.32 12.214 43.1728 14.3125 42.0444C16.4207 41.8641 18.0277 41.3046 19.1245 40.3848L19.1055 40.2143L18.3115 40.4513L18.1317 40.4703L18.1127 40.2996C19.6632 40.0626 20.7315 39.7211 21.327 39.2471C24.3427 36.9143 26.621 35.2645 28.162 34.2878C31.3287 31.9552 33.3897 29.6793 34.3255 27.4701C34.5025 27.4314 34.679 27.3903 34.855 27.3467C35.2992 27.3279 35.545 27.3184 35.6112 27.2994C35.5922 27.2141 35.6302 27.1667 35.7152 27.1476C36.4242 27.0719 36.084 27.195 36.5377 27.0907L37.7287 26.8159C37.6532 26.8347 37.6247 26.8728 37.6437 26.9485L37.8232 26.8347C37.7855 26.8347 37.7572 26.8254 37.7287 26.8159L37.9272 26.7685L37.8327 26.8254C37.9652 26.8442 38.107 26.8347 38.2677 26.7968L38.3527 27.1476L32.936 35.7861L31.7352 37.2937L31.1492 39.2659L31.2627 39.2376L31.8487 38.9911L31.6597 39.7592L31.7165 39.9866L31.877 40.1857C31.8015 40.2048 31.7732 40.2522 31.792 40.3374L31.8205 40.4608L32.0662 40.4039C32.4255 40.0909 32.5767 39.8066 32.52 39.5505C32.9075 39.6167 33.1627 39.6453 33.2952 39.6075L33.3235 39.7306C33.0872 39.7875 32.9642 39.9771 32.9452 40.2996L32.9737 40.4229L33.106 40.3943C35.0725 38.2418 39.8937 30.8742 43.7602 25.877C43.6372 25.3366 45.6507 24.5874 49.8102 23.6202L49.9427 23.5918C50.094 24.2461 49.7725 25.8296 48.9785 28.3425C48.468 29.8596 48.2222 30.6942 48.26 30.8268C47.5982 32.8464 47.2862 33.937 47.324 34.1078L45.8492 38.953C44.8945 41.4375 44.1667 44.0452 43.6562 46.795C43.7412 46.776 43.8735 46.7855 44.0627 46.8329L44.2705 46.6526C44.2895 46.7381 44.3462 46.7664 44.4312 46.7474L44.3462 46.3966L44.989 46.3778C45.178 46.3304 45.3387 46.0931 45.4712 45.6571C45.4427 45.0028 45.5752 44.652 45.8682 44.576C46.2652 43.0211 46.511 42.2435 46.5962 42.2149C46.9647 40.6694 47.239 39.7875 47.4185 39.5693C47.9765 37.5592 48.3827 36.5256 48.6475 36.4592L48.7042 36.7059L48.2977 37.7583C47.5887 40.9159 46.8702 43.4097 46.1425 45.2398L46.3505 46.1501L46.4827 46.1217C48.241 42.3287 50.7745 34.8189 54.0737 23.5918C54.1685 22.6056 54.641 21.8375 55.4825 21.2971L55.2932 21.098L55.265 20.9937C55.6432 20.9085 55.9077 20.7567 56.059 20.5481C56.0402 20.4626 55.7092 20.3395 55.0665 20.1687L56.7115 13.095C57.0705 12.7725 57.2785 12.602 57.3447 12.602L57.3732 12.9623C57.288 12.9716 57.1557 13.019 57.0045 13.1233L57.3165 13.5692C57.8835 12.9528 58.498 12.4217 59.1692 11.9761C59.5095 12.0709 59.6797 12.1847 59.6987 12.2986L59.9445 12.2795C61.8162 10.9046 63.6502 9.91835 65.4557 9.32104L65.4747 9.55801C65.144 10.0605 64.917 10.3166 64.794 10.3261C64.813 10.4969 64.8602 10.6486 64.9452 10.7812C64.9737 11.0942 64.1607 13.1803 62.497 17.049C58.6965 26.0097 55.5107 32.6378 52.9205 36.9429C52.93 37.0281 52.9867 37.142 53.0907 37.2937C53.724 37.142 54.1305 36.9807 54.2912 36.829L54.4047 36.8195L54.4237 37.0567L54.6882 37.0377L54.9247 36.9143C54.934 36.9807 55.0192 37.0093 55.18 36.9998L55.1987 37.2558C55.2177 37.4833 55.0855 37.8436 54.7922 38.3366C54.5182 38.6307 54.2345 39.2471 53.932 40.1857L53.9415 40.3091L54.1872 40.29C55.2177 39.1333 56.0022 37.9953 56.5412 36.8764C59.5567 35.9852 61.854 35.1223 63.4422 34.2688C65.0587 34.1266 66.2782 33.7093 67.1102 33.0077L67.1007 32.8846L66.4862 33.0646L66.354 33.0741L66.3445 32.9508C67.5167 32.7802 68.3392 32.5147 68.7835 32.1639C71.0712 30.4 72.8012 29.1389 73.9735 28.3994C77.6225 25.7349 79.324 23.1746 79.116 20.7186ZM78.4922 20.8799L78.5772 21.8375C78.4637 22.0747 78.341 22.1979 78.2275 22.2074L78.0857 20.5764C78.3502 20.6712 78.4827 20.766 78.4922 20.8799ZM6.91047 13.1614L6.74972 13.1707L6.72147 12.8768L7.37372 12.8199L7.38322 12.9716C7.27922 12.9811 7.11847 13.0381 6.91047 13.1614ZM3.72472 45.126C3.34647 44.9554 3.00622 44.889 2.71322 44.9173L2.67522 44.4527C2.65647 44.2726 2.76047 44.1492 2.98722 44.1018C3.19522 44.083 3.31822 44.2348 3.33697 44.5382C3.88547 43.8649 4.18797 43.5236 4.24472 43.5141L4.59447 43.6562C4.48097 44.6046 4.18797 45.0881 3.72472 45.126ZM37.7667 9.4063C37.606 9.42536 37.2845 8.92283 36.8212 7.92706L36.793 7.63317C37.0955 7.60483 37.4075 8.09783 37.7382 9.11241L37.7667 9.4063ZM37.3127 5.86956L37.1805 6.18251L32.5577 4.24814C35.6395 4.35246 37.2277 4.89285 37.3127 5.86956ZM17.7915 22.6816L17.1392 22.7385L17.1107 22.4444L17.763 22.3877L17.7915 22.6816ZM17.262 12.5829L17.4227 12.5734L17.4605 13.0381C17.3092 13.0476 17.1107 13.275 16.865 13.7114L16.8365 13.3889C17.1297 13.0381 17.281 12.7725 17.262 12.5829ZM15.8912 15.8258L15.948 16.4422L15.7872 16.4517L15.7305 15.8353L15.8912 15.8258ZM15.1727 16.9828L15.4847 16.9542C15.4565 17.4663 15.3147 17.7413 15.0595 17.7602L14.8987 17.7697C15.0972 17.4284 15.1917 17.1628 15.1727 16.9828ZM14.634 18.5947L14.8135 18.5756L14.823 18.7273L14.53 19.2206L14.218 19.2489L14.2085 19.0972C14.5205 19.0689 14.6622 18.9076 14.634 18.5947ZM14.1045 20.0456L14.01 20.8229L13.8492 20.8325L13.7832 20.0644L14.1045 20.0456ZM8.80122 35.1697C8.59322 36.2317 8.36622 36.7721 8.12997 36.7912L8.12047 36.6395C8.06372 36.1179 8.29072 35.6249 8.80122 35.1697ZM7.82747 37.2842L7.83697 37.4359C7.85572 37.6445 7.76122 37.7679 7.55322 37.7772L7.54397 37.6254C7.52497 37.4454 7.61947 37.3316 7.82747 37.2842ZM7.54397 41.6745L8.03547 41.6271L8.05422 41.7979C7.93147 41.8071 7.77072 41.8736 7.57222 41.9874L7.26022 42.0158C7.24122 41.8548 7.34547 41.7314 7.54397 41.6745ZM21.535 37.3411C18.7745 38.7065 17.1485 39.6358 16.6665 40.1193C13.6792 41.1624 12.195 41.8071 12.2232 42.0632C9.56697 43.1159 7.81797 43.8935 6.97672 44.3769C6.77822 44.396 6.49447 44.32 6.11647 44.1492C6.06922 43.6089 6.31497 43.1728 6.83472 42.822C7.29797 42.7838 7.74222 42.8503 8.16772 43.0303C8.65947 42.7743 9.51972 42.49 10.7392 42.1865L10.7107 41.8641L9.72772 41.9496C9.85047 41.7788 10.7957 41.3332 12.573 40.6125L13.0647 40.5651L13.0742 40.7168C12.2327 40.7926 11.7695 41.0393 11.6655 41.4849C11.6845 41.684 11.798 41.7693 12.006 41.7505C12.6392 41.352 12.9512 41.115 12.9417 41.0486C14.1425 40.8211 17.4605 39.0763 22.8962 35.824L22.9247 36.1179C22.9342 36.26 22.471 36.6583 21.535 37.3411ZM13.197 40.0909C13.9912 40.0245 14.6717 39.7022 15.239 39.1428C15.4657 39.1237 15.5887 39.209 15.5982 39.4081C15.2105 39.4462 14.4637 39.7684 13.3767 40.3943L13.216 40.4039L13.197 40.0909ZM26.6492 29.7267L22.4802 33.0363C19.3795 35.075 17.7157 36.0988 17.4795 36.1179C12.5447 38.8394 9.47247 40.2522 8.28122 40.3565L8.10172 40.3753C8.25297 39.8161 10.446 35.3119 14.7002 26.8347C16.572 26.6735 19.5215 25.8013 23.5392 24.2082L24.5222 24.1227C26.5547 23.9427 28.0767 24.3409 29.079 25.2893L29.1355 25.9054C28.3792 28.0865 27.5475 29.3571 26.6492 29.7267ZM18.5005 25.128L19.1717 25.0711L19.181 25.2228L18.51 25.2797L18.5005 25.128ZM27.9255 23.5254L28.4172 23.478C28.871 23.6962 29.1072 23.8857 29.1262 24.0565L29.1355 24.2082C28.7007 24.2461 28.2942 24.0186 27.9255 23.5254ZM29.2585 15.9113C28.8237 16.4326 27.6325 17.3241 25.685 18.5756C25.0422 18.6325 22.6505 19.5619 18.51 21.3824C18.303 21.2875 18.0749 21.2484 17.8482 21.2688L17.8197 20.9747C17.7725 20.3773 18.0372 19.6283 18.6232 18.7181C18.9447 17.0111 19.2945 16.0344 19.6822 15.7974L23.1327 8.01257C23.0947 7.52885 23.8322 7.15898 25.3447 6.90295L25.8362 6.85556L25.8742 7.30141C27.3582 7.07372 28.2847 6.94107 28.644 6.91248C31.3855 6.67551 32.813 7.23496 32.9265 8.57202L33.2385 8.54343L33.1722 7.75654L33.5125 7.72795C34.316 8.17381 34.751 8.7142 34.8077 9.34937C34.8455 9.7857 34.6092 10.3261 34.108 10.971C33.9002 10.9899 33.7772 10.8381 33.7582 10.5347L33.418 10.5633L33.3425 11.5114C31.9527 13.5975 30.9412 14.669 30.3172 14.7259C29.75 15.5131 29.4002 15.9018 29.2585 15.9113ZM31.376 21.3636C31.0925 21.1738 30.8655 21.0885 30.6955 21.098L30.6575 20.6334L30.9695 20.605L31.6597 21.0128C31.688 21.2307 31.5935 21.3445 31.376 21.3636ZM33.5692 23.971C33.8717 24.0944 34.0515 24.227 34.0892 24.3504L33.938 24.3883L33.9475 24.3978C33.919 24.3978 33.8812 24.4073 33.8527 24.4169L33.626 24.5969L33.5692 23.971ZM33.7772 25.2797L33.749 25.1563L34.146 25.0616L34.1742 25.1849L33.7772 25.2797ZM34.732 26.3512C35.1385 26.2848 35.337 26.2564 36.0932 26.0857L36.1217 26.209L34.6847 26.5408C34.7037 26.4743 34.7225 26.4081 34.732 26.3512ZM36.1312 26.9485C35.5262 27.0055 35.6585 26.9295 34.6942 27.1476L34.6657 27.0245L35.8665 26.6356L36.4432 26.5029L36.4997 26.7304C36.2445 26.7873 36.4337 26.7873 36.1312 26.9485ZM37.4075 26.6451C37.2655 26.683 37.1522 26.6168 37.086 26.4555L37.4547 26.37C37.6152 26.3322 37.7192 26.3986 37.7572 26.5599L37.4075 26.6451ZM40.8672 22.909L40.839 22.7859L41.4345 22.6437L41.4912 22.8712L40.8672 22.909ZM44.5637 45.6475C44.6015 45.4768 44.611 45.3536 44.592 45.2681L44.7245 45.2398C44.885 45.2019 44.9795 45.2589 45.0175 45.4106L45.0457 45.5337L44.5637 45.6475ZM47.154 23.8857L46.8892 23.8383C46.4637 24.0091 46.1045 24.1322 45.8115 24.1987L45.5657 24.2556C45.424 24.2935 45.3105 24.2366 45.2537 24.0848L46.9837 23.6866L47.551 23.4211L47.74 23.6392C47.4657 23.6962 47.2672 23.7814 47.154 23.8857ZM48.4867 23.4589L48.4585 23.3358C48.5435 23.3168 48.657 23.2506 48.78 23.1272L50.0087 22.8428L50.0372 22.966C49.385 23.1272 48.865 23.2884 48.4867 23.4589ZM48.676 20.9651C48.5907 20.9842 48.4775 21.0602 48.3355 21.1738C48.3167 21.0885 48.1465 21.0885 47.825 21.1645C47.7685 20.9273 48.676 20.5955 50.5572 20.1592L50.8217 20.1023L50.8785 20.33C49.555 20.7186 48.8177 20.9368 48.676 20.9651ZM51.9847 17.381C51.8522 18.8886 51.323 19.7422 50.387 19.9601L50.3587 19.837L49.5267 20.1592L49.158 20.2447C48.969 20.2921 48.7987 20.2826 48.6475 20.2352L48.572 19.9032C48.5435 19.78 49.7442 18.111 52.1832 14.906L52.4667 14.9536C52.5707 15.3897 52.41 16.1957 51.9847 17.381ZM57.8362 12.3552L57.723 12.3648L57.704 12.1278L58.1955 12.0804L58.205 12.2035C58.12 12.2226 57.997 12.27 57.8362 12.3552ZM55.4257 36.6395C55.142 36.5065 54.8867 36.4499 54.6695 36.4687L54.641 36.1083C54.6315 35.9852 54.7072 35.8997 54.868 35.8523C55.0287 35.8335 55.1232 35.9471 55.142 36.1938C55.5485 35.6723 55.7755 35.4067 55.8227 35.4067L56.078 35.511C55.9835 36.2317 55.766 36.6109 55.4257 36.6395ZM81.2715 9.52014C81.1485 9.52967 80.9122 9.15027 80.5435 8.38219L80.5247 8.14522C80.761 8.12616 81.0067 8.49603 81.2525 9.25459L81.2715 9.52014ZM80.9312 6.80816L80.8177 7.05466L77.32 5.58495C79.655 5.66093 80.865 6.06867 80.9312 6.80816ZM66.0987 19.5809L65.607 19.6283L65.5882 19.3911L66.0797 19.3532L66.0987 19.5809ZM65.6922 11.9096L65.8245 11.9001L65.8527 12.2605C65.73 12.27 65.5787 12.4408 65.399 12.7725L65.3802 12.5355C65.5977 12.2605 65.7015 12.0518 65.6922 11.9096ZM64.6617 14.3751L64.6995 14.8398L64.5672 14.8493L64.5292 14.3847L64.6617 14.3751ZM64.104 15.2571L64.3497 15.238C64.3215 15.6362 64.2175 15.8448 64.0377 15.8639L63.9055 15.8732C64.0472 15.6079 64.1135 15.3992 64.104 15.2571ZM63.707 16.4707L63.8205 16.4612L63.8297 16.5843L63.6125 16.9637L63.3665 16.9828L63.3572 16.8594C63.6125 16.8404 63.7257 16.7077 63.707 16.4707ZM63.31 17.5706L63.2247 18.1774L63.1112 18.1869L63.064 17.5896L63.31 17.5706ZM59.2732 29.0725C59.1125 29.8692 58.9425 30.2769 58.7627 30.2957L58.7532 30.1914C58.725 29.7932 58.895 29.414 59.2732 29.0725ZM58.5265 30.6751L58.5357 30.7794C58.5547 30.9499 58.4792 31.045 58.309 31.0542L58.2995 30.9311C58.29 30.8077 58.3657 30.7225 58.5265 30.6751ZM58.3185 34.0127L58.6965 33.9844L58.706 34.1075C58.621 34.117 58.4885 34.1644 58.3372 34.2499L58.0915 34.2688C58.082 34.1361 58.1577 34.0508 58.3185 34.0127ZM68.9347 30.7225C66.855 31.7561 65.6165 32.4578 65.229 32.8181C62.96 33.6145 61.8352 34.1078 61.854 34.3069C59.8405 35.1128 58.517 35.6911 57.893 36.0609C57.7417 36.0705 57.5242 36.0135 57.2407 35.8809C57.203 35.4732 57.392 35.1412 57.789 34.8947C58.1482 34.8663 58.4885 34.9137 58.8005 35.0464C59.1787 34.8568 59.831 34.6482 60.7575 34.4112L60.7385 34.174L59.9632 34.2309C60.058 34.0982 60.7857 33.7567 62.1377 33.2068L62.5157 33.1784L62.5252 33.2828C61.8825 33.3397 61.5232 33.5293 61.4475 33.8705C61.457 34.0223 61.5515 34.0982 61.7122 34.0792C62.185 33.7662 62.4117 33.5862 62.4117 33.5293C63.3192 33.368 65.834 32.0405 69.9652 29.5562L69.984 29.7932C69.9935 29.8975 69.6437 30.2009 68.9347 30.7225ZM62.601 32.8086C63.2152 32.7516 63.7352 32.5147 64.1702 32.0974C64.3307 32.0784 64.4255 32.1543 64.4347 32.306C64.1512 32.3344 63.5935 32.5716 62.752 33.0267L62.6197 33.0363L62.601 32.8086ZM72.8295 24.9289L69.6815 27.4701C67.3275 29.0156 66.0515 29.7932 65.8527 29.8122C62.1092 31.8793 59.7837 32.9508 58.8667 33.0267L58.7345 33.0363C58.8477 32.6095 60.5212 29.1863 63.7542 22.7573C65.1627 22.6342 67.3937 21.9609 70.4567 20.7472L71.2225 20.6808C72.7632 20.5481 73.9167 20.8515 74.673 21.5815L74.7107 22.0462C74.134 23.6771 73.5102 24.6348 72.8295 24.9289ZM66.647 21.4393L67.1385 21.3919L67.148 21.5153L66.6565 21.5627L66.647 21.4393ZM73.8032 20.2161L74.1815 20.1878C74.5312 20.3583 74.7107 20.5102 74.7202 20.6334L74.7297 20.7377C74.3987 20.766 74.0867 20.5955 73.8032 20.2161ZM74.7957 14.4416C74.465 14.8398 73.567 15.5224 72.1017 16.4707C71.61 16.5181 69.795 17.2198 66.6565 18.5852C66.5052 18.5282 66.335 18.5094 66.1552 18.519L66.1365 18.2817C66.0987 17.8266 66.2972 17.2576 66.732 16.5655C66.9777 15.2571 67.252 14.5268 67.5355 14.3561L70.173 8.43911C70.1447 8.0883 70.7025 7.80394 71.837 7.58577L72.215 7.55744L72.2435 7.91778C73.359 7.73748 74.0585 7.63317 74.342 7.60483C76.4217 7.42453 77.509 7.8418 77.594 8.86591L77.8397 8.84685L77.7925 8.27787L78.0385 8.25907C78.6435 8.59082 78.9647 8.98928 79.0027 9.46322C79.031 9.80476 78.8607 10.2218 78.5015 10.7055C78.341 10.7243 78.2465 10.6107 78.2275 10.3642L77.9817 10.383L77.906 11.0942C76.8567 12.6968 76.091 13.5218 75.6087 13.5597C75.1835 14.1382 74.9187 14.432 74.7957 14.4416ZM75.902 18.386L75.8735 18.0257L76.1192 18.0069L76.6487 18.3291C76.6582 18.4808 76.5825 18.5663 76.4217 18.5852C76.195 18.443 76.0247 18.3765 75.902 18.386ZM31.896 41.4185L31.6502 41.4754L31.4422 41.6554C31.48 41.8071 31.5745 41.8641 31.7352 41.8262C31.896 41.7883 31.9622 41.6935 31.9245 41.5418L31.896 41.4185ZM30.9602 39.5505L30.9885 39.6737C31.1492 39.6358 31.2152 39.541 31.1775 39.3893L31.1492 39.2659C30.998 39.304 30.9317 39.3988 30.9602 39.5505ZM37.6152 23.6676L37.899 23.6014L37.8422 23.3549L37.5587 23.4211L37.6152 23.6676ZM123.396 30.8933C120.522 31.538 120.163 31.4241 119.558 31.4715L119.577 31.7087L119.842 31.6897L119.983 31.6801L119.946 31.6518L120.257 31.5284C123.103 31.2155 123.434 31.3293 123.406 31.0069L123.396 30.8933ZM107.921 32.9508L107.94 33.188H107.978L107.959 32.9508H107.921ZM106.143 26.702L105.888 26.6168C105.68 27.1762 105.576 27.508 105.586 27.6028L105.595 27.7071C105.794 27.6976 105.973 27.3563 106.143 26.702ZM123.982 30.8459L124.001 31.0828L124.417 31.1586L124.398 30.9216L123.982 30.8459ZM104.423 33.2446L103.78 33.1689L103.667 33.4154L103.676 33.5388L107.505 33.2163L107.486 32.9793L104.423 33.2446ZM102.684 24.8341L102.674 24.7107L102.542 24.7203L102.305 24.872L102.438 25.0994C102.618 25.0806 102.702 24.9951 102.684 24.8341ZM125.797 29.1011L125.977 29.082C126.081 29.0725 126.128 28.9872 126.119 28.8355L126.015 28.6078C125.362 28.6647 125.06 28.6933 124.531 28.9872L124.521 28.8641L123.737 28.9398C123.718 28.7029 123.652 28.5795 123.548 28.589L123.141 28.6269C122.668 28.6647 122.441 28.6459 122.205 28.826C122.196 28.7407 122.167 28.7029 122.12 28.7029L121.666 28.7407L121.401 28.8924C121.392 28.8072 121.364 28.7691 121.316 28.7691L121.156 28.9115L121.146 28.7881L120.513 28.7407L120.362 28.7503L120.381 28.9872L120.702 29.0725L121.005 29.0537C121.109 29.1201 121.222 29.1389 121.354 29.1294L121.619 28.9968L121.628 29.1011C120.144 29.4709 120.154 29.4045 119.132 29.5753C119.019 29.4993 118.934 29.4614 118.877 29.4709L118.858 29.4897C118.745 29.4802 118.679 29.4045 118.67 29.2811L119.199 29.2149C119.237 29.2149 119.265 29.2528 119.558 29.3097C119.983 29.1011 120.002 29.0156 120.229 28.9968L120.21 28.7595C118.755 29.0441 119.34 28.8546 117.516 29.0156L117.431 29.0251L117.412 28.7881C119.757 28.5038 118.972 28.6647 119.775 28.4373C119.785 28.5226 119.813 28.5604 119.86 28.5604C119.947 28.4721 120.06 28.4154 120.182 28.3994L120.343 28.3899C121.165 28.3235 121.439 28.4847 123.065 28.0296L123.075 28.1339L123.34 28.001L123.585 27.9822C123.566 27.745 123.925 27.7071 124.049 27.6976L124.03 27.4415C121.175 28.02 120.428 27.8588 119.634 28.0865L119.624 27.9822C118.878 28.1148 118.849 28.0579 118.66 28.0674C118.603 28.077 118.518 28.1244 118.424 28.2191C118.414 28.1339 118.386 28.0958 118.329 28.0958C118.301 28.0958 118.291 28.1053 118.282 28.1053L115.862 28.5035C115.852 28.4373 115.824 28.3994 115.767 28.4087C114.51 28.6743 114.85 28.7217 113.168 28.8734C113.092 28.8829 112.988 28.9208 112.855 29.0063C112.846 28.9398 112.808 28.902 112.723 28.9112L111.693 28.9968L111.003 29.1673C110.993 29.1011 110.955 29.0632 110.87 29.0725C110.483 29.1768 110.143 29.2432 109.868 29.2623H109.849C109.679 29.2811 109.935 29.2149 109.802 29.158L109.594 29.2811C109.292 29.3097 109.452 29.2623 108.412 29.2716C106.588 29.4993 106.786 29.5276 106.588 29.5371L105.907 29.4897C105.917 29.5562 105.879 29.6036 105.803 29.6036C105.028 29.4993 104.631 29.3759 104.621 29.2337C104.725 28.4942 104.905 28.1148 105.16 28.0958L105.293 28.0865L105.179 28.333L105.312 28.3235C105.557 28.1908 105.671 28.0674 105.661 27.9536L105.642 27.6976L105.397 27.7166L105.378 27.4796C105.359 27.2994 105.387 27.1381 105.453 27.0055L106.011 26.1047L106.03 26.3417L106.295 26.3226L106.276 26.0857L106.125 25.8675C106.323 25.697 106.475 25.602 106.597 25.5927L106.588 25.4693L106.229 25.4979L106.2 25.1375C106.919 23.6392 107.259 22.7668 107.24 22.5203L107.495 22.6247C107.656 22.6151 107.732 22.5203 107.722 22.3496L107.477 22.3686L107.467 22.2643C107.45 22.0912 107.483 21.9167 107.562 21.7618C107.949 21.3541 108.129 20.9463 108.091 20.5195C108.167 20.51 108.204 20.5481 108.214 20.6334C108.545 20.4438 108.8 19.9413 108.989 19.1067C109.575 18.0448 110.407 15.9208 111.494 12.7442C113.574 7.13064 113.489 6.53333 113.782 5.2058L113.536 5.22461C113.555 5.39537 113.517 5.55661 113.442 5.70832C113.271 5.64187 113.139 5.60401 113.045 5.61354L113.035 5.50922C112.997 5.0255 113.196 4.44725 113.65 3.76442L113.763 3.7549L113.971 4.57037L114.217 4.55156C114.207 4.49464 114.273 4.17216 114.406 3.57485C114.396 3.45147 114.302 3.37575 114.113 3.36622L113.877 3.51793C113.858 3.34716 113.867 2.90156 113.896 2.1904L113.772 2.19993C113.564 1.99129 113.46 1.82053 113.451 1.67834L112.099 1.811C112.09 1.71621 112.042 1.57403 111.948 1.39398C111.938 1.27061 112.241 1.14723 112.865 1.02411L113.139 1.12842L113.395 0.976714C113.404 1.06197 113.451 1.09984 113.546 1.09056L113.801 0.938849C113.81 1.02411 113.857 1.06197 113.952 1.05244L114.075 1.04317L114.056 0.768081C113.867 0.787139 113.366 0.787139 112.572 0.758552L112.317 0.92932L112.307 0.77761C105.964 1.29894 102.362 1.59308 101.502 1.67834C101.388 1.68787 100.944 1.67834 100.16 1.65929C100.169 1.7636 100.074 1.82053 99.8855 1.83958L99.6112 1.71621L98.6848 1.95343C98.4673 1.97224 98.0987 1.96271 97.5882 1.90603C97.4465 2.01963 97.2762 2.08608 97.0682 2.10514C96.9548 2.11442 98.42 2.02916 99.7812 1.93437C99.6395 2.04822 99.4222 2.11442 99.1197 2.143C98.9117 2.16206 98.732 2.13348 98.5807 2.04822C98.3727 2.143 97.7017 2.29471 96.5767 2.52215L96.3025 2.41809L91.8782 3.10066C91.708 3.0154 91.5095 2.98681 91.2827 3.00587C91.0462 3.02493 90.6492 3.11019 90.101 3.2619L87.9645 4.1531L88.1252 4.41866C88.2292 4.40913 88.3805 4.35246 88.56 4.24814L89.3165 4.31434L89.2217 5.0255C88.5222 5.33845 88.1157 5.80311 88.0022 6.39115C86.953 6.85556 86.433 7.18756 86.433 7.38667L86.4425 7.51004L86.6032 7.50051L86.8867 7.3488L87.2178 7.74701L87.265 8.29693C87.2837 8.4677 85.516 12.1943 81.9805 19.4766C78.9175 26.4934 77.3105 30.3338 77.1592 31.0259C76.11 31.3198 75.5047 31.7466 75.3252 32.3156C75.3442 32.4956 75.656 32.619 76.261 32.6664L76.2895 32.9412L76.0152 33.3964L76.0625 33.9465C76.091 34.2309 76.8567 34.4491 78.3597 34.6008C78.3502 34.506 78.3977 34.4491 78.5015 34.4395C78.53 34.7808 78.4355 35.4446 78.218 36.4308L78.3787 36.4213C79.0025 35.5679 79.2957 34.9799 79.2672 34.6577L79.3997 34.6482C79.551 34.6386 79.7117 34.8094 79.9007 35.179C79.7117 35.255 79.05 36.7626 77.9155 39.7118L78.0762 39.9771L78.237 39.9678C79.6265 36.4403 80.4962 34.4869 80.8555 34.117C82.68 33.9558 85.8375 33.6336 90.3185 33.1499L90.602 32.9793C90.6115 33.0741 90.6682 33.1215 90.7722 33.112L91.0652 33.0837L91.349 32.9129C91.3582 33.0077 91.415 33.0551 91.519 33.0455L94.9128 32.7516C95.811 32.6759 96.2362 32.4008 96.1985 31.9362C96.189 31.8131 96.7185 31.6706 97.7867 31.5189C97.8907 31.5094 98.042 31.538 98.25 31.6044C98.2405 31.5189 98.7793 31.4336 99.857 31.3389C99.8855 30.7699 100.065 30.4665 100.386 30.4381L100.358 30.163C100.055 30.1914 99.7152 30.2674 99.3182 30.4C98.6092 30.3621 98.1555 30.3052 97.9662 30.2388C97.7772 30.3431 97.6355 30.4 97.5315 30.4095L95.168 30.4855L94.8845 30.6372C94.875 30.5517 94.8182 30.5139 94.7142 30.5234L94.582 30.5329L94.2795 30.6846C94.27 30.5991 94.0242 30.5329 93.5325 30.4665L93.2302 30.6465L92.644 30.6939L92.6345 30.5422C95.6785 30.2104 97.1817 29.7932 97.1437 29.3002C97.3425 29.2811 97.4465 29.3759 97.4652 29.5753L98.354 29.3476L98.3255 29.0725L91.037 29.2716C91.0462 29.3666 90.999 29.4233 90.8952 29.4328L90.0065 29.3571C89.7795 29.3759 89.5905 29.4424 89.4392 29.5562L89.1085 29.4328C88.1915 29.5088 87.5107 29.6227 87.057 29.7648C86.433 29.7174 85.743 29.7267 84.9772 29.7932L83.3417 29.9354L82.5855 29.8501C82.5477 29.3666 83.4835 26.9864 85.412 22.7194C85.97 21.2781 86.4802 20.3773 86.972 20.0361C87.076 20.0265 87.2272 20.0644 87.4352 20.1497L88.598 19.7514L89.1935 19.8462C90.1955 19.761 91.3582 19.4766 92.6912 18.9834C93.0222 18.955 93.268 18.9741 93.4475 19.0498L94.3362 18.8412L96.9832 18.6137C98.108 18.519 99.3275 18.2722 100.651 17.8645L100.623 17.5896C100.131 17.637 99.876 17.5518 99.857 17.3524C99.8288 16.9828 99.4695 16.8311 98.7792 16.8878L98.751 16.6129L99.479 16.4043L101.388 16.243L101.36 15.9682C101.285 15.9775 100.897 15.9682 100.178 15.9396L100.15 15.6457L100.887 15.5793C101.086 15.5605 101.171 15.4654 101.152 15.2759C100.16 15.3044 99.6585 15.2571 99.649 15.1242C92.729 15.4654 89.2597 15.5319 89.2407 15.3137C89.1367 15.3233 88.995 15.3897 88.806 15.5036L88.6262 15.2189C90.4602 11.3123 91.538 9.3401 91.85 9.31151C91.8592 9.46322 91.7838 9.70972 91.6135 10.0417L91.623 10.1648L91.916 10.1365C92.644 8.39172 93.2585 7.49098 93.769 7.45312C95.9432 7.26329 93.4665 7.12111 98.1175 6.39115C98.3067 6.47641 98.439 6.51427 98.5335 6.50474C100.358 6.13512 102.901 5.74619 106.162 5.34798L106.143 5.0729L104.404 5.23414L104.385 4.9593C104.593 4.94024 104.763 4.87379 104.905 4.7602L104.914 4.91191C105.009 4.90238 105.141 4.83593 105.312 4.72208C105.614 4.69375 105.841 4.72208 106.002 4.80759C106.607 4.64635 107.098 4.55156 107.457 4.51345L108.545 4.40913C108.809 4.23861 108.932 4.0869 108.923 3.94472L108.913 3.82135C108.639 3.84968 108.327 3.83088 107.959 3.76442C107.949 3.61271 108.025 3.5084 108.204 3.461L110.228 3.27143L111.154 3.03421C111.163 3.13853 111.211 3.17664 111.286 3.17664C111.381 3.16711 111.513 3.10066 111.683 2.98681C111.73 2.99634 111.787 2.99634 111.835 3.00587C111.712 3.2619 111.57 3.63177 111.428 4.11524L111.163 4.1343C111.145 3.954 111.097 3.79301 111.012 3.65058L110.88 3.66011C108.422 10.5252 107.325 13.7209 105.057 18.9929C104.641 20.3395 104.291 21.0885 103.988 21.2497C103.998 21.4015 104.092 21.4772 104.253 21.4584C104.309 22.1221 104.158 22.7764 103.79 23.4211C102.74 26.4555 102.041 28.1148 101.682 28.4182L101.918 29.8501C101.927 30.0018 101.852 30.0871 101.691 30.1061L101.445 30.1252C101.407 29.7267 101.265 29.5371 101.01 29.5657L100.878 29.5753C100.556 30.0778 100.311 30.656 100.15 31.3293L100.396 31.3103C100.727 31.0924 100.878 30.8363 100.849 30.5422L101.341 30.4948L101.625 30.5991C101.398 30.9595 101.294 31.2441 101.313 31.462L101.445 31.6897L101.124 32.4482L101.133 32.5716C101.417 32.543 101.729 32.6378 102.06 32.8369C102.287 32.8181 102.532 32.7138 102.807 32.5335C103.09 32.5051 104.149 32.4956 105.974 32.4956L106.89 32.1827C108.006 32.1731 108.185 32.2017 109.15 32.1165L109.547 32.0784L109.755 31.9362L109.764 32.0595C110.776 31.974 110.842 32.0405 111.636 32.1353L111.646 32.2587L111.088 32.306L111.106 32.543C111.277 32.5242 111.428 32.4766 111.551 32.3725C111.693 32.363 111.778 32.4387 111.787 32.6095C111.56 32.6285 111.305 32.6852 111.021 32.7802L110.776 32.6947C110.388 32.799 110.473 32.8276 110.209 32.8464L109.821 32.7707C109.83 32.8369 109.793 32.8843 109.727 32.8843C109.736 33.0363 109.821 33.112 109.963 33.1025L110.36 33.0646L112.43 32.8843L113.215 32.7138C113.224 32.7802 113.253 32.8181 113.319 32.8086L113.697 32.6664L114.406 32.6095C114.954 32.5621 114.945 32.5242 116.136 32.3344C116.127 32.2587 116.155 32.2301 116.212 32.2208L116.221 32.3249C118.159 31.9931 118.282 31.974 118.594 31.8697L118.622 31.9266C119.104 31.813 118.83 31.8414 118.963 31.7466C118.972 31.8319 119 31.8697 119.048 31.8697L119.388 31.8414L119.369 31.5854L118.679 31.5758L118.67 31.557C118.641 31.5663 118.622 31.5663 118.594 31.5758H118.499V31.5949C118.036 31.6897 118.026 31.6232 117.724 31.6518L115.994 31.7466L115.984 31.6232L116.949 31.4906L117.299 31.462L117.497 31.3198L117.507 31.4432C118.868 31.3293 119.35 31.6706 125.646 30.3243C125.986 30.2957 125.958 30.0113 126.175 29.4233C126.06 29.4312 125.945 29.4049 125.844 29.3476C125.325 29.5467 125.05 29.4519 124.049 29.6131C123.963 29.6227 123.897 29.5467 123.869 29.395L123.859 29.2906L124.824 29.319C125.003 29.3002 125.353 29.2716 125.873 28.9777C125.873 29.0632 125.684 29.1106 125.797 29.1011ZM79.2485 29.8501L78.804 29.888C78.7852 29.7079 79.0215 29.0251 79.513 27.8588L79.8062 27.8305C79.8157 28.1053 79.636 28.7786 79.2485 29.8501ZM79.7872 27.6883L79.7777 27.5649C79.7682 27.4132 79.863 27.3089 80.071 27.2615L80.0802 27.3846C80.0897 27.5649 79.9952 27.6692 79.7872 27.6883ZM85.6957 32.2682L85.7052 32.3913L84.9677 32.4578L84.9582 32.3344L85.6957 32.2682ZM84.807 32.1922C84.8165 32.3439 84.5897 32.5147 84.098 32.6852L83.1905 32.619L82.8975 32.6473L82.8692 32.3725L84.807 32.1922ZM90.7817 4.60849L90.3372 4.64635L90.328 4.49464C90.3185 4.34293 90.4035 4.23861 90.5925 4.19122L90.7532 4.18169L91.0557 4.30482C91.0652 4.48511 90.9802 4.58943 90.7817 4.60849ZM97.541 3.28096L97.6827 3.27143L97.7015 3.54626L97.295 3.58438C97.2857 3.43267 97.3612 3.32835 97.541 3.28096ZM95.8392 3.87827L95.168 3.80229L95.1585 3.67917C96.0377 3.60319 96.3307 3.5084 96.8697 3.35669C96.8792 3.461 96.9737 3.49887 97.1437 3.48006L97.1628 3.7549L96.898 3.78348C96.69 3.80229 96.5105 3.77395 96.3592 3.68869C96.1985 3.79301 96.0282 3.85921 95.8392 3.87827ZM96.6807 6.33422L96.6712 6.21085L97.7582 6.10653L97.7677 6.22991L96.6807 6.33422ZM97.8435 5.38585L97.834 5.23414L98.3633 5.18674L98.3727 5.33845L97.8435 5.38585ZM97.9662 3.52746L97.8245 3.53698L97.9475 3.24284L99.1575 3.12925L99.167 3.28096C98.855 3.30929 98.4485 3.39455 97.9662 3.52746ZM98.5807 6.1444L98.5617 5.86956L99.0912 5.82217C99.271 5.80311 99.3655 5.88837 99.375 6.0782L98.5807 6.1444ZM101.785 1.7636L101.105 1.95343L100.982 1.96271C100.66 1.99129 100.244 1.98176 99.753 1.93437C100.632 1.87745 101.473 1.811 101.785 1.7636ZM101.057 4.79806L101.067 4.92119L100.131 5.00669L100.122 4.88332L101.057 4.79806ZM102.589 5.52803C102.579 5.41443 102.4 5.33845 102.031 5.30059L101.095 5.56614L100.377 5.59448C100.216 5.48063 100.131 5.4049 100.122 5.34798L100.954 5.39537L102.825 5.09195L103.78 5.12982L103.79 5.28153C103.317 5.32892 102.92 5.41443 102.589 5.52803ZM112.222 3.03421C112.336 3.04374 112.411 3.04374 112.439 3.04374C112.771 2.72151 113.139 2.46548 113.564 2.28519C113.224 3.78348 112.695 4.89285 111.967 5.61354L111.438 5.29106C111.882 4.16263 112.147 3.41361 112.222 3.03421ZM110.596 5.8317L110.728 5.82217C110.549 6.16346 110.388 6.3435 110.256 6.35303L110.228 5.99269C110.312 5.99269 110.436 5.93576 110.596 5.8317ZM109.547 8.34433C109.802 7.32022 110.048 6.74196 110.275 6.59025L110.284 6.71337C110.152 7.66175 109.944 8.16428 109.67 8.20214L109.717 8.79946C109.49 9.12193 109.386 9.36843 109.396 9.55801L109.263 9.56754L109.188 8.74253C109.339 8.72373 109.462 8.59082 109.547 8.34433ZM109.14 9.70972C109.15 9.85215 109.055 10.1839 108.866 10.696L108.734 10.7055L108.705 10.3451C108.885 9.92788 109.036 9.71925 109.14 9.70972ZM101.511 31.9171L101.502 31.813L101.748 31.794L101.776 32.1543C101.644 32.1639 101.549 32.0879 101.511 31.9171ZM112.411 32.2017C112.402 32.1165 112.364 32.0784 112.279 32.0879L111.664 32.1448L111.655 32.0214H111.712L113.168 31.8983L113.177 32.0214C112.752 32.0405 112.496 32.1069 112.411 32.2017ZM111.683 31.8983C111.74 31.9266 111.712 31.9552 111.683 31.974C111.655 31.9648 111.617 31.9362 111.683 31.8983ZM111.759 30.1914L110.946 30.2578L110.937 30.1345L111.674 30.0683L112.317 29.907C112.326 29.9827 112.364 30.0113 112.449 30.0018C113.215 29.8692 113.139 29.8313 113.508 29.8027C113.631 29.7932 113.707 29.8692 113.716 30.0209L111.759 30.1914ZM114.604 29.9449C114.151 29.8975 114.122 29.8596 113.801 29.888L113.791 29.7836L114.519 29.7174L114.529 29.8218C114.453 29.8313 114.727 29.8501 114.604 29.9449ZM114.661 29.8122L114.652 29.7079L115.049 29.67L115.058 29.7744L114.661 29.8122ZM115.54 29.7362L115.531 29.6319C115.597 29.6227 115.692 29.5753 115.814 29.4802C116.013 29.4614 116.117 29.5941 116.136 29.7458L115.54 29.7362ZM116.665 29.5941L116.656 29.4709L117.138 29.4328L117.147 29.5562L116.665 29.5941ZM117.337 29.5371C117.327 29.395 117.384 29.3097 117.507 29.2906L117.667 29.4993C117.658 29.4328 117.686 29.395 117.743 29.3854L117.866 29.6131L117.337 29.5371ZM110.199 32.6285L110.18 32.3913L110.104 32.4008L110.123 32.6378L110.199 32.6285ZM126.809 28.3139C126.884 28.2665 126.922 28.2191 126.743 28.1908C126.658 28.2856 126.837 28.3139 126.648 28.3235L126.658 28.4087C126.677 28.3899 126.724 28.3613 126.761 28.333L126.658 28.4182V28.4278L126.459 28.6838L126.856 28.5416H126.904L126.885 28.3044L126.809 28.3139ZM127.499 28.8546L127.423 28.8641L127.442 29.1011L128 29.0537C127.991 28.902 127.622 28.8546 127.499 28.8546ZM126.639 28.4373L126.648 28.4278V28.4182C126.648 28.4182 126.639 28.4278 126.639 28.4373Z" fill="black"/>
<path d="M90.3468 10.8855L90.3563 11.0372L90.6683 11.0089C90.6588 10.9141 90.6965 10.7624 90.7628 10.5726L90.7345 10.2978C90.602 10.3073 90.4698 10.5064 90.3468 10.8855ZM87.3595 3.67917L87.3313 3.40408L86.8868 3.44195L86.9153 3.71703L87.3595 3.67917ZM78.6908 19.9601C78.6718 19.7041 77.8778 18.7085 76.3085 16.9542C76.28 16.632 76.819 16.1483 77.925 15.5131L81.0825 12.7537C81.7915 11.8527 82.2073 10.3925 82.3303 8.36338L82.2925 7.89872C82.1695 6.49521 81.158 5.36704 79.239 4.50417C78.1045 3.73609 76.0625 3.30929 73.1133 3.23331C70.6743 3.44195 67.4883 4.31434 63.5653 5.86003C62.4875 6.63764 61.2585 7.415 59.8783 8.19261L59.8973 8.42983C59.9823 8.4203 60.1145 8.37291 60.266 8.26859C60.4265 8.24954 60.5213 8.32552 60.5305 8.47723L60.767 8.35385L60.8803 8.34432L60.8898 8.44864C60.8993 8.57202 60.0485 9.24506 58.328 10.4495L58.4603 10.696L58.3468 10.7055L58.0633 10.6012C58.0728 10.6864 57.9498 10.7434 57.7135 10.7624L57.723 10.8667L57.997 11.208C57.912 11.2175 57.7798 11.1797 57.6 11.1132C57.203 11.1511 56.8153 11.3597 56.4278 11.7579L56.5885 11.0563C57.1653 8.56249 57.5623 6.35303 57.7703 4.43772L57.7418 4.31434C57.3448 4.05832 56.9573 3.69797 56.598 3.24284C56.6075 2.94895 56.6075 2.77818 56.598 2.74032L56.5695 2.636L56.4563 2.66459C55.2083 4.54203 52.807 7.74701 49.2433 12.2795C46.53 15.5036 45.1308 17.2955 45.0458 17.6558C43.9398 18.8033 43.4103 19.4954 43.467 19.7326C43.174 19.9222 43.051 20.1118 43.0985 20.3204C43.0133 20.3395 42.9565 20.3109 42.9378 20.2256C42.465 20.9937 41.7655 21.4867 40.8295 21.7049L39.8463 21.9323C39.714 21.9609 39.6478 22.0557 39.6573 22.2169L39.6858 22.34L40.0543 22.2548L40.0828 22.3591L39.2508 22.6816L37.776 23.0229L37.001 23.0703C36.8875 23.1841 37.6153 23.0607 37.3318 23.1272L36.3675 23.3549C35.7815 23.4875 35.46 23.4401 35.4033 23.2032L35.2898 23.2315C35.3088 23.3358 35.3183 23.4116 35.2993 23.478L35.2425 23.241L34.4673 23.4211C34.4108 23.0607 33.3613 21.7523 31.3288 19.4954C31.291 19.0593 32.0095 18.4239 33.4748 17.5992L37.6153 13.9483C38.5418 12.7537 39.09 10.8381 39.2698 8.20214L39.213 7.58577C39.0523 5.72738 37.71 4.22908 35.1858 3.07232C33.6923 2.05774 31.0075 1.5171 27.1315 1.43185C23.9173 1.70668 19.72 2.85416 14.5583 4.85498C13.1403 5.88837 11.5238 6.91248 9.70875 7.92706L9.737 8.24954C9.86 8.24001 10.0208 8.17381 10.2193 8.05996C10.4273 8.0409 10.5408 8.13569 10.5595 8.32552L10.881 8.14522L11.0418 8.13569L11.051 8.2874C11.0605 8.43911 9.9355 9.32104 7.65725 10.9329L7.837 11.2175L7.67625 11.2271L7.3265 11.1037C7.336 11.1985 7.17525 11.2649 6.84425 11.2933L6.86325 11.464L7.24125 11.8813C7.1185 11.8908 6.94825 11.8527 6.731 11.777C5.9935 11.8432 5.275 12.3743 4.566 13.3794L4.74575 13.664C5.36025 13.095 5.71925 12.8106 5.82325 12.8011L5.86125 13.2658C5.75725 13.275 5.5965 13.3415 5.379 13.4553L5.76675 14.0431C6.49882 13.2496 7.32778 12.5519 8.234 11.9666C8.67825 12.0804 8.91475 12.2226 8.924 12.3743L9.2645 12.346C11.7035 10.5347 14.114 9.22625 16.5058 8.4203L16.5343 8.74253C16.0898 9.4063 15.7873 9.74783 15.6265 9.76664C15.6455 9.99433 15.7213 10.1934 15.863 10.3642C15.9008 10.7719 14.8135 13.5218 12.611 18.6042C7.61 30.4191 3.41275 39.1616 0 44.813C0.0095 44.9268 0.07575 45.0786 0.1985 45.2681C1.04 45.069 1.56925 44.8606 1.79625 44.6613L1.97575 44.6425L2.00425 44.9647L2.316 44.9364L2.6375 44.7563C2.647 44.8511 2.751 44.8985 2.9685 44.8795L2.99675 45.2019C3.025 45.5149 2.8455 45.9888 2.46725 46.6431C2.127 47.032 1.75825 47.8475 1.37075 49.0897L1.38025 49.2412L1.69225 49.2129C3.0535 47.6862 4.084 46.1879 4.793 44.7277C8.7635 43.5615 11.7885 42.414 13.8873 41.2858C15.9953 41.1055 17.6023 40.5461 18.699 39.6263L18.68 39.4557L17.886 39.6927L17.7063 39.7118L17.6875 39.541C19.2378 39.304 20.306 38.9625 20.9018 38.4886C23.9173 36.1557 26.1955 34.506 27.7365 33.5293C30.9035 31.1967 32.9643 28.9208 33.9003 26.7116C34.0703 26.6735 34.2405 26.6356 34.4295 26.5882C34.8738 26.5694 35.1198 26.5599 35.1858 26.5408C35.167 26.4555 35.2048 26.4081 35.2898 26.3891C35.9988 26.3134 35.6585 26.4365 36.1123 26.3322L37.3035 26.0573L37.502 26.0097L37.4075 26.0666C37.5398 26.0857 37.6815 26.0761 37.8423 26.0383L37.9273 26.3891L32.5105 35.0273L31.31 36.5351L30.7238 38.5074L30.8373 38.479L31.4233 38.2325L31.2343 39.0006L31.291 39.2281L31.4518 39.4272C31.376 39.4462 31.3478 39.4936 31.3665 39.5789L31.395 39.7022L31.6408 39.6453C32 39.3324 32.1513 39.048 32.0945 38.792C32.482 38.8582 32.7373 38.8868 32.8698 38.8489L32.898 38.972C32.6618 39.0289 32.5388 39.2185 32.52 39.541L32.5483 39.6641L32.6808 39.6358C34.647 37.4833 39.4683 30.1156 43.3348 25.1185C43.2118 24.5781 45.2255 23.8288 49.385 22.8616L49.5173 22.8333C49.6685 23.4875 49.3473 25.0711 48.553 27.584C48.0425 29.1011 47.7968 29.9353 47.8345 30.0683C47.1728 32.0879 46.8608 33.1784 46.8988 33.349L45.424 38.1944C44.469 40.679 43.7413 43.2864 43.2308 46.0362C43.3158 46.0174 43.4483 46.0269 43.6373 46.0743L43.8453 45.894C43.864 45.9795 43.9208 46.0079 44.006 45.9888L43.9208 45.638L44.5638 45.6192C44.7528 45.5718 44.9135 45.3346 45.0458 44.8985C45.0175 44.2443 45.1498 43.8935 45.4428 43.8175C45.8398 42.2625 46.0858 41.4849 46.1708 41.4563C46.5395 39.9109 46.8135 39.0289 46.9933 38.8108C47.551 36.8007 47.9575 35.7671 48.2223 35.7006L48.279 35.9471L47.8725 36.9998C47.1633 40.1574 46.445 42.6512 45.717 44.4812L45.925 45.3915L46.0573 45.3632C47.8158 41.5702 50.3493 34.0601 53.6485 22.8333C53.743 21.8471 54.2158 21.079 55.057 20.5386L54.868 20.3395L54.8395 20.2352C55.2178 20.1497 55.4825 19.9982 55.6338 19.7896C55.6148 19.7041 55.284 19.5809 54.641 19.4102L56.286 12.3364C56.6453 12.014 56.8533 11.8434 56.9193 11.8434L56.9478 12.2035C56.8628 12.2131 56.7303 12.2605 56.579 12.3648L56.891 12.8106C57.4583 12.1943 58.0728 11.6631 58.7438 11.2175C59.0843 11.3123 59.2543 11.4262 59.2733 11.5398L59.519 11.521C61.3908 10.146 63.2248 9.1598 65.0305 8.56249L65.0493 8.79945C64.7185 9.30198 64.4915 9.55801 64.3688 9.56754C64.3875 9.7383 64.4348 9.89002 64.52 10.0227C64.5483 10.3356 63.7353 12.4217 62.0715 16.2904C58.2713 25.2511 55.0853 31.8792 52.495 36.1843C52.5045 36.2696 52.5613 36.3834 52.6653 36.5351C53.2988 36.3834 53.7053 36.2222 53.866 36.0705L53.9793 36.0609L53.9983 36.2979L54.263 36.2791L54.4993 36.1557C54.5088 36.2222 54.5938 36.2505 54.7545 36.2412L54.7735 36.4973C54.7923 36.7247 54.66 37.085 54.367 37.578C54.0928 37.8722 53.8093 38.4886 53.5068 39.4272L53.516 39.5505L53.762 39.5315C54.7923 38.3747 55.577 37.2368 56.1158 36.1179C59.1315 35.2267 61.4288 34.3635 63.0168 33.5102C64.6335 33.368 65.8528 32.9508 66.6848 32.2491L66.6753 32.1258L66.0608 32.306L65.9285 32.3156L65.919 32.1922C67.0913 32.0214 67.9138 31.7561 68.358 31.4053C70.6458 29.6415 72.3758 28.3804 73.548 27.6406C77.197 24.9763 78.8988 22.416 78.6908 19.9601ZM78.0668 20.1213L78.1518 21.079C78.0385 21.3162 77.9155 21.4393 77.802 21.4488L77.6603 19.8179C77.925 19.9127 78.0573 20.0075 78.0668 20.1213ZM6.485 12.4029L6.3245 12.4122L6.296 12.1183L6.94825 12.0614L6.95775 12.2131C6.85375 12.2226 6.693 12.2795 6.485 12.4029ZM3.29925 44.3674C2.92125 44.1966 2.58075 44.1304 2.28775 44.1588L2.25 43.6941C2.231 43.5141 2.335 43.3907 2.562 43.3433C2.76975 43.3245 2.89275 43.4762 2.91175 43.7796C3.46 43.1063 3.7625 42.765 3.81925 42.7555L4.169 42.8977C4.0555 43.8458 3.7625 44.3295 3.29925 44.3674ZM37.3413 8.64775C37.1805 8.6668 36.859 8.16428 36.396 7.16851L36.3675 6.87461C36.67 6.84628 36.982 7.33927 37.3128 8.35385L37.3413 8.64775ZM36.8875 5.11101L36.755 5.42396L32.1323 3.48934C35.2143 3.59366 36.8025 4.1343 36.8875 5.11101ZM17.366 21.923L16.7138 21.98L16.6855 21.6858L17.3378 21.6289L17.366 21.923ZM16.8365 11.8244L16.9973 11.8149L17.0353 12.2795C16.884 12.289 16.6855 12.5165 16.4395 12.9528L16.4113 12.6303C16.7043 12.2795 16.8555 12.014 16.8365 11.8244ZM15.4658 15.0672L15.5225 15.6836L15.362 15.6931L15.3053 15.0768L15.4658 15.0672ZM14.7475 16.2242L15.0595 16.1957C15.031 16.7077 14.8893 16.9828 14.634 17.0016L14.4733 17.0111C14.6718 16.6698 14.7663 16.4043 14.7475 16.2242ZM14.2085 17.8361L14.3883 17.8171L14.3975 17.9688L14.1045 18.462L13.7925 18.4904L13.7833 18.3387C14.0953 18.3103 14.237 18.1491 14.2085 17.8361ZM13.6793 19.287L13.5848 20.0644L13.424 20.0739L13.3578 19.3058L13.6793 19.287ZM8.37575 34.4112C8.16775 35.4732 7.941 36.0135 7.7045 36.0326L7.69525 35.8809C7.6385 35.3593 7.86525 34.8663 8.37575 34.4112ZM7.402 36.5256L7.4115 36.6773C7.4305 36.8859 7.336 37.0093 7.128 37.0186L7.1185 36.8669C7.0995 36.6868 7.194 36.573 7.402 36.5256ZM7.1185 40.9159L7.61 40.8685L7.629 41.0393C7.506 41.0486 7.34525 41.115 7.14675 41.2289L6.83475 41.2572C6.816 41.096 6.92 40.9728 7.1185 40.9159ZM21.1095 36.5825C18.3493 37.9479 16.7233 38.8772 16.241 39.3607C13.2538 40.4039 11.7695 41.0486 11.798 41.3046C9.1415 42.3573 7.3925 43.1347 6.55125 43.6184C6.35275 43.6372 6.06925 43.5615 5.691 43.3907C5.64375 42.8503 5.8895 42.414 6.4095 42.0632C6.87275 42.0253 7.317 42.0917 7.7425 42.2718C8.234 42.0158 9.09425 41.7314 10.3138 41.428L10.2855 41.1055L9.30225 41.1908C9.425 41.0202 10.3705 40.5746 12.1478 39.854L12.6393 39.8066L12.6488 39.9583C11.8075 40.034 11.3443 40.2805 11.2403 40.7263C11.259 40.9255 11.3725 41.0107 11.5805 40.9917C12.214 40.5934 12.5258 40.3565 12.5165 40.29C13.717 40.0626 17.0353 38.3178 22.471 35.0654L22.4993 35.3593C22.5088 35.5015 22.0455 35.8997 21.1095 36.5825ZM12.7718 39.3324C13.5658 39.2659 14.2465 38.9437 14.8135 38.3842C15.0405 38.3652 15.1635 38.4504 15.1728 38.6495C14.7853 38.6877 14.0385 39.0099 12.9513 39.6358L12.7905 39.6453L12.7718 39.3324ZM26.224 28.9682L22.055 32.287C18.9543 34.3257 17.2905 35.3498 17.0445 35.3688C12.11 38.0901 9.0375 39.5031 7.8465 39.6075L7.66675 39.6263C7.818 39.0668 10.0113 34.5629 14.2653 26.0857C16.137 25.9244 19.0865 25.052 23.1043 23.4592L24.0875 23.3737C26.12 23.1936 27.642 23.5918 28.644 24.54L28.7008 25.1563C27.954 27.3279 27.122 28.5985 26.224 28.9682ZM18.075 24.3695L18.7463 24.3125L18.7558 24.4642L18.0845 24.5212L18.075 24.3695ZM27.5003 22.7668L27.9918 22.7194C28.4455 22.9376 28.6818 23.1272 28.7008 23.298L28.7103 23.4497C28.2753 23.4875 27.8688 23.2598 27.5003 22.7668ZM28.833 15.1527C28.3983 15.6741 27.207 16.5655 25.2598 17.8171C24.6168 17.874 22.225 18.8033 18.0845 20.6238C17.8775 20.529 17.6494 20.4898 17.4228 20.51L17.3945 20.2161C17.3473 19.6188 17.6118 18.8698 18.198 17.9595C18.5193 16.2526 18.8693 15.2759 19.2568 15.0389L22.7073 7.25401C22.6695 6.7703 23.4068 6.40042 24.9193 6.1444L25.411 6.097L25.4488 6.54286C26.933 6.31517 27.8593 6.18251 28.2185 6.15393C30.9603 5.91696 32.3875 6.47641 32.501 7.81346L32.813 7.78488L32.7468 6.99799L33.0873 6.9694C33.8908 7.415 34.3255 7.95564 34.3823 8.59082C34.42 9.02715 34.1838 9.56754 33.6828 10.2125C33.4748 10.2313 33.3518 10.0796 33.333 9.77617L32.9925 9.80476L32.917 10.7529C31.5273 12.839 30.5158 13.9105 29.892 13.9674C29.3248 14.7543 28.975 15.1432 28.833 15.1527ZM30.9508 20.605C30.667 20.4152 30.4403 20.33 30.27 20.3395L30.2323 19.8748L30.5443 19.8462L31.2343 20.2542C31.2628 20.4721 31.168 20.586 30.9508 20.605ZM33.144 23.2124C33.4465 23.3358 33.626 23.4685 33.6638 23.5918L33.5125 23.6297L33.522 23.6392C33.4938 23.6392 33.4558 23.6488 33.4275 23.6583L33.2005 23.8383L33.144 23.2124ZM33.3518 24.5212L33.3235 24.3978L33.7205 24.303L33.749 24.4264L33.3518 24.5212ZM34.3068 25.5927C34.7133 25.5262 34.9118 25.4979 35.668 25.3271L35.6963 25.4502L34.2595 25.7822C34.2783 25.7158 34.2973 25.6496 34.3068 25.5927ZM35.7058 26.19C35.1008 26.2469 35.233 26.1709 34.2688 26.3891L34.2405 26.2657L35.4505 25.877L36.0273 25.7444L36.084 25.9718C35.8193 26.0287 36.0083 26.0287 35.7058 26.19ZM36.982 25.8866C36.8403 25.9244 36.7268 25.8582 36.6605 25.697L37.0293 25.6115C37.19 25.5736 37.294 25.6401 37.3318 25.8013L36.982 25.8866ZM40.442 22.1505L40.4135 22.0273L41.0093 21.8849L41.066 22.1126L40.442 22.1505ZM44.1383 44.889C44.176 44.7182 44.1855 44.5951 44.1665 44.5096L44.299 44.4812C44.4598 44.4434 44.5543 44.5003 44.592 44.652L44.6205 44.7751L44.1383 44.889ZM46.7285 23.1272L46.4638 23.0798C46.0385 23.2506 45.6793 23.3737 45.386 23.4401L45.1403 23.4971C44.9985 23.5349 44.885 23.478 44.8283 23.3263L46.5583 22.9281L47.1255 22.6625L47.3148 22.8807C47.0405 22.9376 46.842 23.0229 46.7285 23.1272ZM48.0615 22.7004L48.033 22.5773C48.1183 22.5582 48.2315 22.492 48.3545 22.3686L49.5835 22.084L49.6118 22.2074C48.9595 22.3686 48.4395 22.5299 48.0615 22.7004ZM48.2505 20.2066C48.1655 20.2256 48.052 20.3014 47.9103 20.4152C47.8913 20.33 47.7213 20.3299 47.3998 20.4057C47.343 20.1687 48.2505 19.837 50.1318 19.4006L50.3965 19.3437L50.4533 19.5714C49.1298 19.9601 48.3923 20.1782 48.2505 20.2066ZM51.5593 16.6224C51.427 18.13 50.8975 18.9834 49.9615 19.2015L49.9333 19.0784L49.1013 19.4006L48.7328 19.4861C48.5435 19.5335 48.3735 19.524 48.2223 19.4766L48.1465 19.1446C48.1183 19.0215 49.3188 17.3524 51.7578 14.1474L52.0413 14.1948C52.1453 14.6312 51.9848 15.4371 51.5593 16.6224ZM57.411 11.5967L57.2975 11.6062L57.2785 11.3693L57.7703 11.3219L57.7795 11.445C57.6945 11.464 57.5718 11.5114 57.411 11.5967ZM55.0003 35.8809C54.7168 35.748 54.4615 35.6911 54.244 35.7101L54.2158 35.3498C54.2063 35.2267 54.2818 35.1412 54.4425 35.0938C54.6033 35.075 54.6978 35.1885 54.7168 35.435C55.1233 34.9137 55.35 34.6482 55.3973 34.6482L55.6525 34.7525C55.558 35.4732 55.3408 35.8523 55.0003 35.8809ZM80.846 8.76159C80.7233 8.77112 80.4868 8.39172 80.1183 7.62364L80.0993 7.38667C80.3355 7.36761 80.5815 7.73748 80.8273 8.49603L80.846 8.76159ZM80.5058 6.04961L80.3923 6.29611L76.8945 4.8264C79.2295 4.90238 80.4395 5.31012 80.5058 6.04961ZM65.6733 18.8224L65.1818 18.8698L65.1628 18.6325L65.6543 18.5852L65.6733 18.8224ZM65.2668 11.1511L65.399 11.1416L65.4275 11.5019C65.3045 11.5114 65.1533 11.6822 64.9738 12.014L64.9548 11.777C65.1723 11.5019 65.2763 11.2933 65.2668 11.1511ZM64.2363 13.6166L64.2743 14.0812L64.1418 14.0908L64.104 13.6261L64.2363 13.6166ZM63.6785 14.4983L63.9243 14.4794C63.896 14.8777 63.792 15.0863 63.6125 15.1051L63.48 15.1146C63.6218 14.8493 63.688 14.6407 63.6785 14.4983ZM63.2815 15.7122L63.395 15.7027L63.4045 15.8258L63.187 16.2052L62.9413 16.2242L62.9318 16.1009C63.187 16.0818 63.3005 15.9492 63.2815 15.7122ZM62.8845 16.812L62.7995 17.4189L62.686 17.4284L62.6388 16.8311L62.8845 16.812ZM58.8478 28.3139C58.6873 29.1106 58.517 29.5183 58.3373 29.5371L58.328 29.4328C58.2995 29.0346 58.4698 28.6552 58.8478 28.3139ZM58.101 29.9165L58.1105 30.0209C58.1295 30.1914 58.0538 30.2862 57.8835 30.2957L57.8743 30.1726C57.8648 30.0492 57.9403 29.9639 58.101 29.9165ZM57.893 33.2542L58.2713 33.2258L58.2805 33.349C58.1955 33.3585 58.0633 33.4059 57.912 33.4914L57.6663 33.5102C57.6568 33.3775 57.7323 33.2923 57.893 33.2542ZM68.5093 29.9639C66.4295 30.9976 65.191 31.6992 64.8035 32.0595C62.5348 32.856 61.4098 33.349 61.4288 33.5481C59.415 34.3543 58.0915 34.9325 57.4678 35.3024C57.3165 35.3119 57.099 35.255 56.8153 35.1223C56.7775 34.7146 56.9665 34.3826 57.3638 34.1361C57.723 34.1078 58.0633 34.1552 58.3753 34.2878C58.7533 34.0982 59.4055 33.8896 60.332 33.6524L60.3133 33.4154L59.5475 33.4819C59.642 33.349 60.3698 33.0077 61.7218 32.4578L62.0998 32.4292L62.1093 32.5335C61.4665 32.5904 61.1073 32.7802 61.0315 33.1215C61.041 33.2732 61.1355 33.349 61.2963 33.3302C61.769 33.0172 61.9958 32.8369 61.9958 32.7802C62.9035 32.619 65.418 31.2915 69.5493 28.8072L69.568 29.0441C69.568 29.1389 69.2183 29.4424 68.5093 29.9639ZM62.1755 32.05C62.79 31.9931 63.31 31.7561 63.7448 31.3389C63.9055 31.3293 64 31.3958 64.0095 31.5475C63.7258 31.5758 63.168 31.813 62.3268 32.2682L62.1945 32.2775L62.1755 32.05ZM72.4043 24.1704L69.2563 26.7116C66.9023 28.257 65.626 29.0346 65.4275 29.0537C61.684 31.1207 59.3583 32.1922 58.4413 32.2682L58.309 32.2775C58.4225 31.8509 60.0958 28.4278 63.3288 21.9988C64.7373 21.8756 66.9685 21.2023 70.0313 19.9887L70.797 19.9222C72.338 19.7896 73.4913 20.093 74.2475 20.8229L74.2855 21.2876C73.7088 22.9186 73.0848 23.8762 72.4043 24.1704ZM66.2215 20.6808L66.7133 20.6334L66.7225 20.7567L66.231 20.8041L66.2215 20.6808ZM73.3778 19.4576L73.756 19.4292C74.1058 19.5997 74.2855 19.7514 74.2948 19.8748L74.3043 19.9791C73.9735 20.0075 73.6615 19.837 73.3778 19.4576ZM74.3705 13.6828C74.0395 14.0812 73.1415 14.7638 71.6763 15.7122C71.1848 15.7596 69.3695 16.4612 66.231 17.8266C66.0798 17.7697 65.9095 17.7509 65.73 17.7601L65.711 17.5232C65.6733 17.068 65.8718 16.4991 66.3068 15.807C66.5525 14.4983 66.8265 13.7683 67.1103 13.5975L69.7478 7.68056C69.7193 7.32974 70.277 7.04538 71.4115 6.82722L71.7898 6.79888L71.818 7.15898C72.9335 6.97893 73.633 6.87461 73.9168 6.84628C75.9965 6.66598 77.0835 7.08325 77.1688 8.10736L77.4145 8.0883L77.3673 7.51932L77.613 7.50051C78.218 7.83227 78.5395 8.23048 78.5773 8.70467C78.6055 9.04595 78.4355 9.46322 78.0763 9.94694C77.9155 9.96574 77.821 9.85215 77.802 9.6054L77.5563 9.62446L77.4808 10.3356C76.4313 11.9382 75.6655 12.763 75.1835 12.8011C74.758 13.3794 74.4933 13.6735 74.3705 13.6828ZM75.4765 17.6275L75.4483 17.2672L75.694 17.2483L76.2233 17.5706C76.2328 17.7223 76.1573 17.8078 75.9965 17.8266C75.7695 17.6844 75.5995 17.618 75.4765 17.6275ZM31.4705 40.6599L31.2248 40.7168L31.0168 40.8969C31.0548 41.0486 31.1493 41.1055 31.31 41.0676C31.4705 41.0298 31.5368 40.935 31.499 40.7833L31.4705 40.6599ZM30.5348 38.792L30.563 38.9151C30.7238 38.8772 30.79 38.7824 30.7523 38.6307L30.7238 38.5074C30.5725 38.5452 30.5063 38.6403 30.5348 38.792ZM37.2278 26.1805L37.4075 26.0666C37.3695 26.0666 37.3413 26.0571 37.3128 26.0478C37.2468 26.0666 37.2183 26.114 37.2278 26.1805ZM37.19 22.909L37.4735 22.8428L37.4168 22.5961L37.1333 22.6625L37.19 22.909ZM103.998 32.4861L103.355 32.4104L103.241 32.6569L103.251 32.7802L107.08 32.4578L107.061 32.2208L103.998 32.4861ZM107.496 32.1922L107.514 32.4292H107.552L107.533 32.1922H107.496ZM123.557 30.0871L123.576 30.3243L123.992 30.4L123.973 30.163L123.557 30.0871ZM122.971 30.1345C120.097 30.7794 119.738 30.6656 119.133 30.713L119.152 30.9499L119.416 30.9311L119.558 30.9216L119.52 30.8933L119.832 30.7699C122.678 30.4569 123.009 30.5708 122.98 30.2483L122.971 30.1345ZM105.718 25.9435L105.463 25.8582C105.255 26.4174 105.151 26.7494 105.161 26.8442L105.17 26.9485C105.369 26.939 105.548 26.5977 105.718 25.9435ZM102.258 24.0756L102.249 23.9522L102.117 23.9617L101.88 24.1134L102.013 24.3409C102.192 24.3221 102.277 24.2366 102.258 24.0756ZM109.774 31.8697L109.755 31.6328L109.679 31.6423L109.698 31.8792L109.774 31.8697ZM125.372 28.3425L125.552 28.3235C125.656 28.3139 125.703 28.2287 125.693 28.077L125.589 27.8493C124.937 27.9062 124.635 27.9348 124.105 28.2287L124.096 28.1053L123.311 28.1813C123.292 27.9441 123.226 27.8209 123.122 27.8305L122.716 27.8683C122.243 27.9062 122.016 27.8874 121.78 28.0674C121.77 27.9822 121.742 27.9441 121.695 27.9441L121.241 27.9822L120.976 28.1339C120.967 28.0484 120.938 28.0105 120.891 28.0105L120.73 28.1527L120.721 28.0296L120.088 27.9822L119.936 27.9917L119.955 28.2287L120.277 28.3139L120.579 28.2951C120.683 28.3613 120.797 28.3804 120.929 28.3709L121.194 28.2382L121.203 28.3425C119.719 28.7121 119.728 28.6459 118.707 28.8165C118.594 28.7407 118.509 28.7029 118.452 28.7121L118.433 28.7312C118.32 28.7217 118.254 28.6459 118.244 28.5226L118.774 28.4561C118.811 28.4561 118.84 28.4942 119.133 28.5511C119.558 28.3425 119.577 28.257 119.804 28.2382L119.785 28.001C118.329 28.2856 118.915 28.0958 117.091 28.257L117.006 28.2665L116.987 28.0296C119.331 27.745 118.547 27.9062 119.35 27.6788C119.36 27.764 119.388 27.8019 119.435 27.8019C119.521 27.7137 119.635 27.6569 119.757 27.6406L119.917 27.6314C120.74 27.5649 121.014 27.7261 122.64 27.271L122.649 27.3753L122.914 27.2424L123.16 27.2236C123.141 26.9864 123.5 26.9485 123.623 26.939L123.604 26.683C120.749 27.2615 120.002 27.1002 119.208 27.3279L119.199 27.2236C118.452 27.3563 118.424 27.2994 118.235 27.3089C118.178 27.3184 118.093 27.3658 117.998 27.4606C117.989 27.3753 117.961 27.3372 117.904 27.3372C117.875 27.3372 117.866 27.3467 117.857 27.3467L115.436 27.745C115.427 27.6788 115.399 27.6406 115.342 27.6502C114.085 27.9157 114.425 27.9631 112.742 28.1148C112.667 28.1244 112.563 28.1622 112.43 28.2475C112.421 28.1813 112.383 28.1434 112.298 28.1527L111.267 28.2382L110.577 28.4087C110.568 28.3425 110.53 28.3044 110.445 28.3139C110.057 28.4182 109.717 28.4847 109.443 28.5035H109.424C109.254 28.5226 109.509 28.4561 109.377 28.3994L109.169 28.5226C108.866 28.5511 109.027 28.5035 107.987 28.513C106.163 28.7407 106.361 28.7691 106.163 28.7786L105.482 28.7312C105.491 28.7976 105.454 28.845 105.378 28.845C104.603 28.7407 104.206 28.6173 104.196 28.4752C104.3 27.7357 104.48 27.3563 104.735 27.3372L104.868 27.3279L104.754 27.5744L104.886 27.5649C105.132 27.432 105.246 27.3089 105.236 27.195L105.217 26.939L104.971 26.9581L104.953 26.7208C104.934 26.5408 104.962 26.3796 105.028 26.2469L105.586 25.3459L105.605 25.5831L105.87 25.5641L105.851 25.3271L105.699 25.109C105.898 24.9382 106.049 24.8434 106.172 24.8339L106.163 24.7107L105.803 24.7391L105.775 24.3787C106.494 22.8807 106.834 22.0083 106.815 21.7618L107.07 21.8661C107.231 21.8566 107.306 21.7618 107.297 21.591L107.051 21.6101L107.042 21.5058C107.024 21.3326 107.057 21.1581 107.136 21.0032C107.524 20.5955 107.704 20.1878 107.666 19.761C107.741 19.7514 107.779 19.7896 107.789 19.8748C108.12 19.6852 108.375 19.1825 108.564 18.3482C109.15 17.2862 109.982 15.162 111.069 11.9856C113.149 6.37209 113.064 5.77478 113.357 4.44725L113.111 4.46605C113.13 4.63682 113.092 4.79806 113.016 4.94977C112.846 4.88332 112.714 4.84546 112.619 4.85498L112.61 4.75067C112.572 4.26695 112.771 3.68869 113.224 3.00587L113.338 2.99634L113.546 3.81182L113.792 3.79301C113.782 3.73609 113.848 3.41361 113.981 2.8163C113.971 2.69292 113.877 2.61719 113.688 2.60766L113.451 2.75937C113.432 2.58861 113.442 2.143 113.47 1.43185L113.347 1.44137C113.139 1.23274 113.035 1.06197 113.026 0.919791L111.674 1.05244C111.665 0.957656 111.617 0.815475 111.523 0.635178C111.513 0.512054 111.816 0.38868 112.44 0.265556L112.714 0.369873L112.969 0.218162C112.979 0.303421 113.026 0.341286 113.12 0.331757L113.376 0.180046C113.385 0.265556 113.432 0.303421 113.527 0.293892L113.65 0.284363L113.631 0.00952892C113.442 0.028336 112.941 0.028336 112.147 0L111.891 0.170768L111.882 0.0190578C105.539 0.54039 101.937 0.834533 101.077 0.919791C100.963 0.92932 100.519 0.919791 99.7343 0.900734C99.7435 1.00505 99.649 1.06197 99.46 1.08103L99.1858 0.957656L98.2595 1.19488C98.042 1.21368 97.6733 1.20415 97.1628 1.14723C97.021 1.26108 96.8508 1.32753 96.6428 1.34659C96.5295 1.35586 97.9948 1.27061 99.356 1.17582C99.2143 1.28966 98.9968 1.35586 98.6943 1.38445C98.4863 1.40326 98.3068 1.37492 98.1555 1.28966C97.9475 1.38445 97.2763 1.53616 96.1513 1.7636L95.8773 1.65929L91.453 2.34211C91.2828 2.25685 91.0843 2.22826 90.8573 2.24732C90.621 2.26613 90.224 2.35164 89.6758 2.50335L87.5393 3.39455L87.6998 3.66011C87.8038 3.65058 87.955 3.59366 88.1348 3.48934L88.891 3.55579L88.7965 4.26695C88.097 4.5799 87.6905 5.04456 87.577 5.63234C86.5278 6.097 86.0078 6.42901 86.0078 6.62812L86.0173 6.75124L86.1778 6.74196L86.4615 6.59025L86.7923 6.98846L86.8395 7.53838C86.8585 7.70915 85.0908 11.4355 81.555 18.7181C78.4923 25.7348 76.885 29.5753 76.7338 30.2674C75.6845 30.5613 75.0795 30.988 74.8998 31.557C74.9188 31.7371 75.2308 31.8604 75.8358 31.9078L75.864 32.1827L75.59 32.6378L75.6373 33.188C75.6655 33.4723 76.4313 33.6905 77.9345 33.8422C77.925 33.7474 77.9723 33.6905 78.0763 33.681C78.1045 34.0223 78.01 34.686 77.7925 35.6723L77.9533 35.6627C78.5773 34.8094 78.8703 34.2214 78.842 33.8991L78.9743 33.8896C79.1255 33.8801 79.2863 34.0508 79.4753 34.4205C79.2863 34.4964 78.6245 36.004 77.49 38.953L77.6508 39.2185L77.8115 39.209C79.2013 35.6818 80.071 33.7284 80.43 33.3585C82.2548 33.1973 85.412 32.875 89.893 32.3913L90.1768 32.2205C90.186 32.3156 90.2428 32.363 90.3468 32.3534L90.64 32.3249L90.9235 32.1543C90.933 32.2491 90.9898 32.2965 91.0938 32.287L94.4875 31.9931C95.3855 31.9171 95.811 31.6423 95.773 31.1776C95.7638 31.0542 96.293 30.9121 97.3613 30.7604C97.4653 30.7508 97.6165 30.7794 97.8245 30.8456C97.815 30.7604 98.354 30.6751 99.4318 30.5803C99.46 30.0113 99.6395 29.7079 99.961 29.6793L99.9328 29.4045C99.6303 29.4328 99.2898 29.5088 98.8928 29.6415C98.1838 29.6036 97.73 29.5467 97.541 29.4802C97.3518 29.5845 97.21 29.6415 97.106 29.651L94.7428 29.7267L94.459 29.8784C94.4495 29.7932 94.393 29.7553 94.289 29.7648L94.1565 29.7741L93.854 29.9261C93.8445 29.8406 93.5988 29.7741 93.1073 29.7079L92.8048 29.888L92.2188 29.9353L92.2093 29.7836C95.2533 29.4519 96.7563 29.0346 96.7185 28.5416C96.917 28.5226 97.021 28.6174 97.0398 28.8165L97.9285 28.589L97.9003 28.3139L90.6115 28.513C90.621 28.6078 90.5738 28.6647 90.4698 28.6743L89.581 28.5985C89.3543 28.6173 89.1653 28.6838 89.014 28.7976L88.683 28.6743C87.766 28.7503 87.0853 28.8638 86.6315 29.0063C86.0078 28.9589 85.3175 28.9682 84.5518 29.0346L82.9165 29.1768L82.1603 29.0915C82.1223 28.6078 83.0583 26.2278 84.9868 21.9609C85.5445 20.5195 86.055 19.6188 86.5465 19.2775C86.6505 19.268 86.8018 19.3058 87.0098 19.3911L88.1725 18.9929L88.768 19.0877C89.7703 19.0024 90.933 18.7181 92.266 18.2248C92.5968 18.1965 92.8425 18.2155 93.0223 18.2913L93.9108 18.0826L96.5578 17.8549C97.6828 17.7602 98.9023 17.5137 100.226 17.1059L100.197 16.8311C99.7058 16.8785 99.4505 16.793 99.4318 16.5939C99.4033 16.2242 99.044 16.0723 98.354 16.1292L98.3255 15.8544L99.0535 15.6457L100.963 15.4845L100.935 15.2097C100.859 15.2189 100.472 15.2097 99.753 15.1811L99.7248 14.8872L100.462 14.8207C100.661 14.8019 100.746 14.7069 100.727 14.5173C99.7343 14.5456 99.233 14.4983 99.2238 14.3656C92.3038 14.7069 88.8343 14.7733 88.8155 14.5552C88.7115 14.5647 88.5695 14.6312 88.3805 14.745L88.201 14.4604C90.0348 10.5538 91.1125 8.58129 91.4245 8.55296C91.434 8.70467 91.3583 8.95117 91.1975 9.28317L91.207 9.4063L91.5003 9.37796C92.228 7.63317 92.8425 6.73243 93.353 6.69457C95.5273 6.50474 93.0505 6.36256 97.7018 5.63234C97.8908 5.71785 98.023 5.75572 98.1175 5.74619C99.942 5.37632 102.485 4.98764 105.747 4.58943L105.728 4.31434L103.988 4.47558L103.969 4.2005C104.177 4.18169 104.348 4.11524 104.489 4.00139L104.499 4.1531C104.593 4.14383 104.726 4.07737 104.896 3.96353C105.198 3.93519 105.425 3.96353 105.586 4.04879C106.191 3.8878 106.683 3.79276 107.042 3.7549L108.129 3.65058C108.394 3.48006 108.517 3.32835 108.507 3.18592L108.498 3.0628C108.223 3.09113 107.912 3.07232 107.543 3.00587C107.533 2.85416 107.609 2.74985 107.789 2.70245L109.812 2.51288L110.738 2.27566C110.748 2.37997 110.795 2.41784 110.87 2.41784C110.965 2.40856 111.097 2.34211 111.267 2.22826C111.315 2.23779 111.371 2.23779 111.419 2.24732C111.296 2.50335 111.154 2.87322 111.012 3.35669L110.748 3.37574C110.729 3.19545 110.681 3.03421 110.596 2.89203L110.464 2.90156C108.006 9.76664 106.909 12.9623 104.641 18.2343C104.225 19.5809 103.875 20.33 103.572 20.4912C103.582 20.6429 103.676 20.7186 103.837 20.6998C103.894 21.3636 103.743 22.0178 103.374 22.6625C102.324 25.697 101.625 27.3563 101.266 27.6597L101.502 29.0915C101.511 29.2432 101.436 29.3285 101.275 29.3476L101.029 29.3666C100.992 28.9682 100.85 28.7786 100.595 28.8072L100.462 28.8165C100.141 29.319 99.8948 29.8975 99.7343 30.5708L99.98 30.5517C100.311 30.3338 100.462 30.0778 100.434 29.7836L100.925 29.7362L101.209 29.8406C100.982 30.2009 100.878 30.4855 100.897 30.7034L101.029 30.9311L100.708 31.6897L100.717 31.813C101.001 31.7845 101.313 31.8793 101.644 32.0784C101.871 32.0595 102.117 31.9552 102.391 31.7749C102.674 31.7466 103.733 31.7371 105.558 31.7371L106.475 31.4241C107.59 31.4146 107.77 31.4432 108.734 31.3577L109.131 31.3198L109.339 31.1776L109.348 31.301C110.36 31.2155 110.426 31.2819 111.22 31.3767L111.23 31.5001L110.672 31.5475L110.691 31.7845C110.861 31.7654 111.012 31.718 111.135 31.6137C111.277 31.6044 111.362 31.6801 111.371 31.8509C111.145 31.8697 110.889 31.9266 110.606 32.0214L110.36 31.9362C109.972 32.0405 110.057 32.0688 109.793 32.0879L109.405 32.0122C109.415 32.0784 109.377 32.1258 109.311 32.1258C109.32 32.2775 109.405 32.3534 109.547 32.3439L109.944 32.306L112.014 32.1258L112.799 31.9552C112.808 32.0214 112.837 32.0595 112.903 32.05L113.281 31.9078L113.99 31.8509C114.538 31.8035 114.529 31.7654 115.72 31.5758C115.711 31.5001 115.739 31.4715 115.796 31.462L115.805 31.5663C117.743 31.2345 117.866 31.2155 118.178 31.1112L118.206 31.1681C118.688 31.0542 118.414 31.0828 118.547 30.988C118.556 31.0733 118.584 31.1112 118.632 31.1112L118.972 31.0828L118.953 30.8268L118.263 30.8173L118.254 30.7982C118.225 30.8077 118.206 30.8077 118.178 30.8173H118.083V30.8363C117.62 30.9311 117.611 30.8647 117.308 30.8933L115.578 30.988L115.569 30.8647L116.533 30.732L116.883 30.7034L117.081 30.5613L117.091 30.6846C118.452 30.5708 118.934 30.9121 125.23 29.5657C125.571 29.5371 125.542 29.2528 125.76 28.6647C125.644 28.6727 125.529 28.6463 125.429 28.589C124.909 28.7881 124.635 28.6933 123.633 28.8546C123.548 28.8641 123.481 28.7881 123.453 28.6364L123.443 28.5321L124.408 28.5604C124.587 28.5416 124.937 28.513 125.457 28.2191C125.457 28.3044 125.259 28.3518 125.372 28.3425ZM78.823 29.0915L78.3788 29.1294C78.3598 28.9494 78.5963 28.2665 79.0878 27.1002L79.3808 27.0719C79.3903 27.3467 79.2105 28.02 78.823 29.0915ZM79.362 26.9295L79.3525 26.8064C79.343 26.6546 79.4375 26.5503 79.6455 26.5029L79.655 26.6261C79.6645 26.8064 79.5698 26.9107 79.362 26.9295ZM85.2703 31.5094L85.2798 31.6328L84.5425 31.6992L84.533 31.5758L85.2703 31.5094ZM84.3818 31.4336C84.3913 31.5854 84.1643 31.7561 83.6728 31.9266L82.765 31.8604L82.472 31.8888L82.4438 31.6137L84.3818 31.4336ZM90.3563 3.84968L89.912 3.8878L89.9025 3.73609C89.893 3.58438 89.9783 3.48006 90.1673 3.43267L90.328 3.42314L90.6305 3.54626C90.6398 3.72656 90.5548 3.83088 90.3563 3.84968ZM97.1155 2.52215L97.2573 2.51288L97.2763 2.78771L96.8698 2.82558C96.8603 2.67386 96.9358 2.5698 97.1155 2.52215ZM95.4138 3.11972L94.7428 3.04374L94.7333 2.92061C95.6125 2.84463 95.9055 2.74985 96.4443 2.59814C96.4538 2.70245 96.5483 2.74032 96.7185 2.72151L96.7373 2.99634L96.4728 3.02493C96.2648 3.04374 96.085 3.0154 95.9338 2.92989C95.773 3.03421 95.603 3.10066 95.4138 3.11972ZM96.2553 5.57567L96.2458 5.4523L97.333 5.34798L97.3425 5.47135L96.2553 5.57567ZM97.418 4.62729L97.4085 4.47558L97.938 4.42819L97.9475 4.5799L97.418 4.62729ZM97.541 2.7689L97.399 2.77818L97.522 2.48429L98.732 2.37044L98.7415 2.52215C98.4295 2.55074 98.023 2.636 97.541 2.7689ZM98.1555 5.38585L98.1365 5.11101L98.666 5.06362C98.8455 5.04456 98.94 5.12982 98.9495 5.31964L98.1555 5.38585ZM101.36 1.00505L100.68 1.19488L100.557 1.20415C100.235 1.23274 99.8193 1.22321 99.3275 1.17582C100.207 1.1189 101.048 1.05244 101.36 1.00505ZM100.632 4.03951L100.642 4.16263L99.7058 4.24814L99.6963 4.12477L100.632 4.03951ZM102.164 4.76947C102.154 4.65588 101.975 4.5799 101.606 4.54203L100.67 4.80759L99.9515 4.83593C99.7908 4.72208 99.7058 4.64635 99.6963 4.58943L100.528 4.63682L102.4 4.3334L103.355 4.37127L103.364 4.52298C102.892 4.57037 102.495 4.65588 102.164 4.76947ZM111.797 2.27566C111.91 2.28519 111.986 2.28519 112.014 2.28519C112.345 1.96271 112.714 1.70668 113.139 1.52663C112.799 3.02493 112.27 4.1343 111.542 4.85498L111.012 4.53251C111.457 3.40408 111.721 2.65506 111.797 2.27566ZM110.171 5.0729L110.303 5.06362C110.124 5.4049 109.963 5.58495 109.831 5.59448L109.802 5.23413C109.887 5.23413 110.01 5.17721 110.171 5.0729ZM109.122 7.58577C109.377 6.56166 109.623 5.98341 109.849 5.8317L109.859 5.95482C109.727 6.90295 109.519 7.40573 109.244 7.44359L109.292 8.0409C109.065 8.36338 108.961 8.60988 108.97 8.79945L108.838 8.80898L108.762 7.98398C108.914 7.96517 109.036 7.83227 109.122 7.58577ZM108.715 8.95117C108.724 9.09335 108.63 9.42535 108.441 9.93741L108.309 9.94694L108.28 9.58659C108.46 9.16933 108.611 8.96069 108.715 8.95117ZM101.086 31.1586L101.077 31.0542L101.322 31.0354L101.351 31.3958C101.218 31.4053 101.124 31.3293 101.086 31.1586ZM111.986 31.4432C111.976 31.3577 111.939 31.3198 111.854 31.3293L111.239 31.3863L111.23 31.2629H111.286L112.742 31.1398L112.752 31.2629C112.326 31.2819 112.071 31.3484 111.986 31.4432ZM111.258 31.1398C111.315 31.1681 111.286 31.1967 111.258 31.2155C111.23 31.206 111.192 31.1776 111.258 31.1398ZM111.334 29.4328L110.521 29.4993L110.511 29.3759L111.249 29.3097L111.891 29.1485C111.901 29.2242 111.939 29.2528 112.024 29.2432C112.79 29.1106 112.714 29.0725 113.083 29.0441C113.205 29.0346 113.281 29.1106 113.291 29.2623L111.334 29.4328ZM114.179 29.1863C113.725 29.1389 113.697 29.1011 113.376 29.1294L113.366 29.0251L114.094 28.9589L114.104 29.0632C114.028 29.0725 114.302 29.0915 114.179 29.1863ZM114.236 29.0537L114.226 28.9494L114.623 28.9112L114.633 29.0156L114.236 29.0537ZM115.115 28.9777L115.106 28.8734C115.172 28.8641 115.266 28.8165 115.389 28.7217C115.588 28.7029 115.692 28.8355 115.711 28.9872L115.115 28.9777ZM116.24 28.8355L116.231 28.7121L116.713 28.6743L116.722 28.7976L116.24 28.8355ZM116.911 28.7786C116.902 28.6364 116.958 28.5511 117.081 28.5321L117.242 28.7407C117.233 28.6743 117.261 28.6364 117.318 28.6269L117.441 28.8546L116.911 28.7786ZM126.213 27.6788L126.223 27.6692V27.6597C126.223 27.6597 126.213 27.6692 126.213 27.6788ZM126.384 27.5554C126.459 27.508 126.497 27.4606 126.317 27.4323C126.232 27.527 126.412 27.5554 126.223 27.5649L126.232 27.6502C126.251 27.6314 126.299 27.6028 126.336 27.5744L126.232 27.6597V27.6692L126.034 27.9252L126.431 27.7831H126.478L126.459 27.5458L126.384 27.5554ZM127.074 28.096L126.998 28.1053L127.017 28.3425L127.575 28.2951C127.565 28.1434 127.197 28.096 127.074 28.096Z" fill="#F9DC3E"/>
</svg>
