<svg width="45" height="50" viewBox="0 0 45 50" fill="none" xmlns="http://www.w3.org/2000/svg">
<path d="M44.0958 0L40.0873 44.9948L22.0689 50L4.10009 45.0018L0.0958252 0H44.0958Z" fill="#264DE4"/>
<path d="M36.6556 42.1297L40.0811 3.67957H22.0958V46.1742L36.6556 42.1297Z" fill="#2965F1"/>
<path d="M9.27553 20.3701L9.76923 25.8893H22.0958V20.3701H9.27553Z" fill="#EBEBEB"/>
<path d="M22.0958 9.19885H22.0768H8.28353L8.78426 14.7182H22.0958V9.19885Z" fill="#EBEBEB"/>
<path d="M22.0958 40.4465V34.7042L22.0717 34.7106L15.937 33.0508L15.5448 28.6489H10.0153L10.787 37.315L22.0705 40.4536L22.0958 40.4465Z" fill="#EBEBEB"/>
<path d="M28.8597 25.8893L28.2203 33.0474L22.0768 34.7088V40.451L33.3692 37.3151L34.7464 21.8521L34.8808 20.37L35.8753 9.19885H22.0768L22.0768 14.7182H29.8386L29.3374 20.37H22.0768V25.8893H28.8597Z" fill="white"/>
</svg>
