<svg width="57" height="50" viewBox="0 0 57 50" fill="none" xmlns="http://www.w3.org/2000/svg">
<path d="M17.3593 17.9137L28.1737 11.6788C28.3067 11.602 28.4576 11.5617 28.6112 11.5617C28.7648 11.5617 28.9157 11.602 29.0487 11.6788L39.8632 17.9137C39.9961 17.9904 40.1066 18.1007 40.1834 18.2335C40.2602 18.3663 40.3006 18.517 40.3007 18.6703V31.1402C40.3007 31.4521 40.1337 31.7405 39.8632 31.8968L29.0487 38.1317C28.9157 38.2084 28.7648 38.2488 28.6112 38.2488C28.4576 38.2488 28.3067 38.2084 28.1737 38.1317L17.3593 31.8968C17.2263 31.8201 17.1159 31.7098 17.0391 31.577C16.9623 31.4442 16.9218 31.2935 16.9218 31.1402V18.6701C16.922 18.3579 17.0888 18.07 17.3593 17.9137Z" fill="#8080F2"/>
<path d="M56.6474 23.8834L43.7124 1.41188C43.2426 0.599436 42.3747 0 41.4351 0H15.5649C14.6253 0 13.7569 0.599436 13.2871 1.41188L0.352353 23.8338C-0.117451 24.6465 -0.117451 25.6721 0.352353 26.4848L13.2871 48.7722C13.7569 49.5847 14.6253 50 15.5649 50H41.4349C42.3745 50 43.2426 49.5971 43.7122 48.7845L56.6472 26.4608C57.1174 25.6486 57.1177 24.6958 56.6474 23.8834ZM45.9365 34.6893C45.9365 35.0194 45.7375 35.3252 45.4507 35.4906L28.9744 44.9831C28.8325 45.0642 28.6718 45.1069 28.5083 45.1069C28.3448 45.1069 28.1842 45.0642 28.0423 44.9831L11.5533 35.4906C11.2667 35.3252 11.0661 35.0197 11.0661 34.689V15.7036C11.0661 15.373 11.2638 15.0677 11.5506 14.9023L28.0261 5.4096C28.1679 5.3283 28.3285 5.28552 28.492 5.28552C28.6555 5.28552 28.8161 5.3283 28.9579 5.4096L45.4478 14.9023C45.7348 15.0677 45.9365 15.373 45.9365 15.7036V34.6893Z" fill="#4B32C3"/>
</svg>
