<svg width="34" height="50" viewBox="0 0 34 50" fill="none" xmlns="http://www.w3.org/2000/svg">
<path d="M8.34582 50C12.8998 50 16.5958 46.2667 16.5958 41.6667V33.3334H8.34582C3.79182 33.3334 0.0958252 37.0667 0.0958252 41.6667C0.0958252 46.2667 3.79182 50 8.34582 50Z" fill="#0ACF83"/>
<path d="M0.0958252 24.9999C0.0958252 20.3999 3.79182 16.6666 8.34582 16.6666H16.5958V33.3334H8.34582C3.79182 33.3334 0.0958252 29.5999 0.0958252 24.9999Z" fill="#A259FF"/>
<path d="M0.0958252 8.33333C0.0958252 3.73333 3.79182 0 8.34582 0H16.5958V16.6666H8.34582C3.79182 16.6666 0.0958252 12.9333 0.0958252 8.33333Z" fill="#F24E1E"/>
<path d="M16.5958 0H24.8458C29.3998 0 33.0958 3.73333 33.0958 8.33333C33.0958 12.9333 29.3998 16.6667 24.8458 16.6667L16.5958 16.6666V0Z" fill="#FF7262"/>
<path d="M33.0958 24.9999C33.0958 29.5999 29.3998 33.3333 24.8458 33.3333C20.2918 33.3333 16.5958 29.5999 16.5958 24.9999C16.5958 20.3999 20.2918 16.6667 24.8458 16.6667C29.3998 16.6667 33.0958 20.3999 33.0958 24.9999Z" fill="#1ABCFE"/>
</svg>
