<svg width="51" height="50" viewBox="0 0 51 50" fill="none" xmlns="http://www.w3.org/2000/svg">
<path d="M49.5571 22.7726L27.7266 0.942937C26.4702 -0.314312 24.4311 -0.314312 23.1731 0.942937L18.6399 5.47623L24.3905 11.2269C25.7268 10.7753 27.2592 11.0783 28.3245 12.1435C29.3948 13.2156 29.6956 14.7612 29.2331 16.1018L34.7751 21.6441C36.1159 21.1822 37.663 21.481 38.7339 22.5537C40.2305 24.0498 40.2305 26.4747 38.7339 27.9718C37.2368 29.4691 34.812 29.4691 33.3141 27.9718C32.1883 26.8448 31.9102 25.1914 32.4801 23.8045L27.3118 18.636L27.3112 32.2373C27.6858 32.4225 28.028 32.6672 28.3245 32.9619C29.8211 34.458 29.8211 36.8831 28.3245 38.3813C26.8274 39.8778 24.4014 39.8778 22.9065 38.3813C21.4098 36.8831 21.4098 34.4582 22.9065 32.9621C23.2652 32.6032 23.6914 32.319 24.1606 32.1259V18.3979C23.6907 18.2061 23.2642 17.9218 22.9065 17.5618C21.7725 16.4294 21.4998 14.7655 22.0809 13.3731L16.4121 7.70361L1.44336 22.6717C0.185546 23.9301 0.185546 25.9694 1.44336 27.2268L23.2743 49.0569C24.5311 50.3144 26.5698 50.3144 27.8282 49.0569L49.5569 27.3282C50.8144 26.0704 50.8145 24.0299 49.5571 22.7726Z" fill="#DE4C36"/>
</svg>
