<svg width="51" height="50" viewBox="0 0 51 50" fill="none" xmlns="http://www.w3.org/2000/svg">
<path d="M25.5001 0C11.4186 0 0 11.476 0 25.6329C0 36.9583 7.30654 46.5665 17.4386 49.956C18.7129 50.1932 19.1809 49.3999 19.1809 48.7228C19.1809 48.1117 19.1571 46.0923 19.1463 43.9505C12.052 45.5011 10.555 40.9261 10.555 40.9261C9.39507 37.9633 7.72373 37.1756 7.72373 37.1756C5.41021 35.5846 7.89812 35.6172 7.89812 35.6172C10.4588 35.7981 11.8072 38.2588 11.8072 38.2588C14.0815 42.1776 17.7726 41.0445 19.2277 40.3898C19.4565 38.7328 20.1175 37.6022 20.8467 36.9621C15.1829 36.3138 9.22867 34.1159 9.22867 24.2942C9.22867 21.4958 10.2248 19.209 11.8562 17.414C11.5914 16.7683 10.7186 14.1612 12.1032 10.6305C12.1032 10.6305 14.2445 9.94154 19.1175 13.258C21.1515 12.6899 23.333 12.4052 25.5001 12.3956C27.6672 12.4052 29.8503 12.6899 31.8883 13.258C36.7555 9.94154 38.8938 10.6305 38.8938 10.6305C40.2818 14.1612 39.4086 16.7683 39.1438 17.414C40.7788 19.209 41.7681 21.4956 41.7681 24.2942C41.7681 34.1392 35.8027 36.3072 30.1245 36.9416C31.0391 37.7371 31.8541 39.2971 31.8541 41.6884C31.8541 45.1181 31.8245 47.8785 31.8245 48.7228C31.8245 49.4049 32.2835 50.2043 33.5762 49.9526C43.7027 46.5593 51 36.9545 51 25.6329C51 11.476 39.583 0 25.5001 0Z" fill="#161614"/>
<path d="M9.55059 36.5146C9.49459 36.6419 9.295 36.6801 9.1136 36.5928C8.92861 36.5092 8.82461 36.3355 8.88461 36.2077C8.93961 36.0766 9.1392 36.04 9.3238 36.1281C9.50919 36.2115 9.61479 36.3868 9.55059 36.5146ZM10.8049 37.6396C10.6833 37.753 10.4456 37.7003 10.2842 37.5212C10.1174 37.3425 10.0862 37.1037 10.2096 36.9885C10.335 36.8753 10.5656 36.9282 10.7327 37.1071C10.8995 37.2878 10.9321 37.525 10.8049 37.6396ZM11.6655 39.079C11.5091 39.1882 11.2535 39.0859 11.0957 38.8579C10.9395 38.6301 10.9395 38.3567 11.0991 38.2472C11.2575 38.1376 11.5091 38.2361 11.6691 38.4623C11.8251 38.6941 11.8253 38.9673 11.6655 39.079ZM13.1207 40.7462C12.9809 40.901 12.6833 40.8596 12.4653 40.6481C12.2425 40.4415 12.1803 40.1481 12.3205 39.9931C12.4619 39.8379 12.7613 39.8816 12.9809 40.0913C13.2023 40.2975 13.2697 40.593 13.1207 40.7462ZM15.0014 41.3091C14.94 41.5097 14.6532 41.601 14.3644 41.5158C14.076 41.4279 13.8872 41.1927 13.9454 40.9899C14.0054 40.7878 14.2934 40.6927 14.5844 40.784C14.8724 40.8715 15.0614 41.1049 15.0014 41.3091ZM17.1421 41.5477C17.1493 41.7592 16.9043 41.9345 16.6012 41.9384C16.2962 41.945 16.0496 41.7739 16.0464 41.566C16.0464 41.3525 16.2858 41.1788 16.5906 41.1738C16.8937 41.1678 17.1421 41.3377 17.1421 41.5477ZM19.2449 41.4667C19.2813 41.673 19.0705 41.8849 18.7695 41.9412C18.4735 41.9954 18.1995 41.8682 18.1617 41.6637C18.1249 41.4522 18.3397 41.2406 18.6351 41.1857C18.9367 41.133 19.2065 41.257 19.2449 41.4667Z" fill="#161614"/>
</svg>
