<svg width="54" height="50" viewBox="0 0 54 50" fill="none" xmlns="http://www.w3.org/2000/svg">
<path d="M27 50L36.943 19.241H17.0569L27 50Z" fill="#E24329"/>
<path d="M27 50L17.0569 19.241L3.12225 19.2408L27 50Z" fill="#FC6D26"/>
<path d="M3.12225 19.2408L0.100772 28.5883C-0.0335725 29.0039 -0.033591 29.4515 0.100719 29.8671C0.235028 30.2827 0.496771 30.6448 0.848436 30.9017L27 50L3.12225 19.2408Z" fill="#FCA326"/>
<path d="M3.12225 19.2408L17.0569 19.241L11.0686 0.714895C10.7604 -0.238404 9.41873 -0.238192 9.11075 0.714895L3.12225 19.2408Z" fill="#E24329"/>
<path d="M27 50L36.943 19.241L50.8778 19.2408L27 50Z" fill="#FC6D26"/>
<path d="M50.8778 19.2408L53.8993 28.5883C54.0336 29.0039 54.0336 29.4516 53.8992 29.8671C53.7649 30.2827 53.5031 30.6449 53.1514 30.9017L27 50L50.8778 19.2408Z" fill="#FCA326"/>
<path d="M50.8778 19.2408L36.943 19.241L42.9315 0.714895C43.2397 -0.238404 44.5814 -0.238192 44.8894 0.714895L50.8778 19.2408Z" fill="#E24329"/>
</svg>
