<svg width="51" height="50" viewBox="0 0 51 50" fill="none" xmlns="http://www.w3.org/2000/svg">
<path d="M50.5 0H0.5V50H50.5V0Z" fill="#F7DF1E"/>
<path d="M34.0873 39.0627C35.0944 40.7072 36.4048 41.9159 38.7222 41.9159C40.669 41.9159 41.9127 40.9429 41.9127 39.5984C41.9127 37.9873 40.6349 37.4167 38.4921 36.4794L37.3175 35.9754C33.927 34.531 31.6746 32.7214 31.6746 28.896C31.6746 25.3722 34.3595 22.6897 38.5555 22.6897C41.5428 22.6897 43.6905 23.7294 45.2381 26.4516L41.5794 28.8008C40.7738 27.3564 39.9048 26.7873 38.5555 26.7873C37.1794 26.7873 36.3071 27.6603 36.3071 28.8008C36.3071 30.2103 37.1801 30.781 39.196 31.654L40.3706 32.1572C44.3627 33.8691 46.6167 35.6143 46.6167 39.5381C46.6167 43.7683 43.2936 46.0857 38.8309 46.0857C34.4675 46.0857 31.6484 44.0064 30.269 41.281L34.0873 39.0627ZM17.4897 39.4699C18.2278 40.7794 18.8992 41.8865 20.5135 41.8865C22.0571 41.8865 23.0309 41.2826 23.0309 38.9341V22.9579H27.7294V38.9976C27.7294 43.8627 24.877 46.077 20.7135 46.077C16.9516 46.077 14.773 44.1302 13.6651 41.7853L17.4897 39.4699Z" fill="black"/>
</svg>
