<svg width="45" height="50" viewBox="0 0 45 50" fill="none" xmlns="http://www.w3.org/2000/svg">
<path d="M42.1826 24.6179C42.1826 22.0477 40.1114 19.9639 37.5567 19.9639C37.3923 19.9639 37.2303 19.9728 37.0704 19.9898L43.424 1.13666H16.4233L22.7681 19.9733C22.6745 19.9674 22.5807 19.9643 22.4869 19.9641C19.9322 19.9641 17.8611 22.0475 17.8611 24.6181C17.8611 26.6956 19.2145 28.4546 21.0823 29.053C20.0958 30.7722 18.8544 32.3207 17.445 33.6586C15.5284 35.4775 13.3351 36.8568 10.9628 37.7067C8.13834 36.2469 6.80464 33.0005 8.00803 30.1541C8.14397 29.8325 8.28273 29.5067 8.41532 29.1824C10.4615 28.7019 11.9864 26.8565 11.9864 24.6514C11.9864 22.081 9.91525 19.9974 7.36038 19.9974C4.80551 19.9974 2.73453 22.081 2.73453 24.6514C2.73453 26.2275 3.5139 27.6198 4.70549 28.4617C3.56056 31.0843 1.87751 33.8292 1.35312 37.0104C0.724656 40.8229 1.351 44.8699 4.62854 47.1554C12.2616 52.4779 20.5473 43.8558 29.2834 41.6883C32.4495 40.903 35.9249 41.0294 38.7144 39.4042C40.8091 38.1836 42.1902 36.1606 42.582 33.8896C42.9694 31.6461 42.4048 29.4123 41.1067 27.601C41.8031 26.765 42.1841 25.7087 42.1826 24.6179Z" fill="#99425B"/>
<path d="M41.4689 33.6951C41.1287 35.6669 39.9183 37.389 38.1482 38.4206C36.4981 39.382 34.5208 39.669 32.4271 39.9727C31.3056 40.1353 30.1459 40.3038 29.0129 40.5848C26.0173 41.3279 23.1157 42.778 20.3099 44.1802C14.6945 46.9864 9.84498 49.4095 5.27231 46.221C1.92276 43.8856 2.07736 39.5643 2.46757 37.1964C2.82926 35.0025 3.80708 32.982 4.7525 31.0282C4.91357 30.6961 5.07334 30.3634 5.23181 30.03C5.70839 30.2217 6.20846 30.3479 6.71853 30.4053C5.75603 33.601 7.26969 37.0758 10.4465 38.7177L10.8814 38.9425L11.3417 38.7776C13.8533 37.8776 16.1676 36.4338 18.2203 34.4852C19.5471 33.2258 20.688 31.8325 21.6257 30.3436C21.9107 30.3869 22.1986 30.4086 22.4869 30.4086C25.4028 30.4086 27.8173 28.2156 28.1909 25.3832C29.3845 25.3393 30.6521 25.3389 31.8525 25.3828C32.2258 28.2156 34.6407 30.4088 37.5566 30.4088C38.7758 30.4088 39.9066 30.0244 40.8383 29.3714C41.4851 30.7034 41.7265 32.2022 41.4689 33.6951ZM7.36055 21.1341C9.28836 21.1341 10.8566 22.712 10.8566 24.6515C10.8566 25.3481 10.6534 25.9978 10.3046 26.5448C9.72348 27.4567 8.73562 28.0817 7.60073 28.1596C7.52132 28.1649 7.4412 28.1688 7.36055 28.1688C6.93089 28.1688 6.51937 28.09 6.13884 27.9468C5.37248 27.6569 4.73071 27.107 4.32425 26.3919C4.02243 25.8622 3.86385 25.2621 3.86431 24.6515C3.86431 22.712 5.43273 21.1341 7.36055 21.1341ZM18.991 24.618C18.991 22.8559 20.2858 21.3927 21.9681 21.1397C22.1375 21.114 22.3108 21.1008 22.4871 21.1008C23.6079 21.1008 24.6058 21.6349 25.2457 22.4626C25.406 22.6689 25.5429 22.8927 25.6539 23.1296C25.8712 23.5953 25.9836 24.1036 25.9831 24.618C25.9831 24.8992 25.9493 25.1726 25.8872 25.4347C25.5464 26.8697 24.3302 27.9667 22.8398 28.1176C22.7239 28.1293 22.6063 28.1353 22.4871 28.1353C21.8146 28.1359 21.1564 27.9401 20.5924 27.5718C19.6299 26.9445 18.991 25.8551 18.991 24.618ZM33.5826 20.4353C32.8218 21.1659 32.2743 22.0921 31.9994 23.1134C30.6816 23.0646 29.3625 23.0646 28.0448 23.1134C27.749 22.0094 27.1358 21.0354 26.3108 20.2956L29.9286 12.9361L33.5826 20.4353ZM17.9991 2.27365H41.848L36.2151 18.9876C35.9728 19.046 35.7345 19.1203 35.5018 19.2099L29.9374 7.78981L24.3571 19.1417C24.1139 19.0577 23.8653 18.9903 23.613 18.94L17.9991 2.27365ZM41.0526 24.6182C41.0526 24.9708 41.0003 25.3113 40.904 25.6328C40.6755 26.3898 40.2009 27.0477 39.5564 27.5009C38.9706 27.9145 38.2722 28.1362 37.5566 28.1355C35.9424 28.1355 34.5807 27.0288 34.1802 25.5301C34.1007 25.2327 34.0605 24.9261 34.0605 24.6182C34.0605 24.1374 34.157 23.6789 34.3313 23.2612C34.4213 23.0475 34.5321 22.8432 34.662 22.6514C35.2912 21.7171 36.3528 21.1009 37.5566 21.1009C37.667 21.1009 37.7758 21.1066 37.8837 21.1169C39.6587 21.2832 41.0526 22.7896 41.0526 24.6182ZM43.3124 24.6182C43.3124 21.7911 41.2877 19.4323 38.621 18.9284L45 0H14.8475L21.2363 18.9667C18.6623 19.543 16.7314 21.8572 16.7314 24.618C16.7314 26.6912 17.8204 28.512 19.4524 29.5352C18.6674 30.7119 17.7366 31.8192 16.6698 32.8318C14.978 34.4374 13.0933 35.6552 11.0614 36.4565C9.01472 35.163 8.1496 32.7237 9.048 30.5989L9.2505 30.1199C11.4985 29.331 13.1162 27.1785 13.1162 24.6515C13.1162 21.4584 10.5342 18.8608 7.36055 18.8608C4.1869 18.8608 1.60456 21.4584 1.60456 24.6515C1.60456 26.2631 2.26314 27.7226 3.32284 28.7735C3.12519 29.1948 2.92456 29.6146 2.72097 30.0331C1.75195 32.0351 0.653863 34.3043 0.23847 36.8244C-0.586329 41.8291 0.744196 45.8299 3.98511 48.0895C5.95166 49.4607 7.94886 50 9.95856 50C13.7427 50 17.5709 48.0872 21.315 46.2161C24.0115 44.8688 26.7998 43.4755 29.554 42.792C30.5789 42.5378 31.6333 42.3847 32.7497 42.2228C34.9637 41.9014 37.2528 41.5692 39.2806 40.3878C41.6313 39.018 43.2402 36.7202 43.6952 34.0841C44.0858 31.8209 43.6158 29.5542 42.4694 27.6317C43.0218 26.7248 43.3136 25.6818 43.3124 24.6182Z" fill="white"/>
</svg>
