<svg width="92" height="50" viewBox="0 0 92 50" fill="none" xmlns="http://www.w3.org/2000/svg">
  <path d="M28.1853 33.4137C23.6149 33.4137 19.8895 29.6609 19.8895 25.0602C19.8895 20.4596 23.6149 16.7068 28.1853 16.7068C32.7557 16.7068 36.481 20.4596 36.481 25.0602C36.481 29.6576 32.7524 33.4137 28.1853 33.4137ZM8.26621 49.999C3.70239 49.9892 -0.0131174 46.2199 3.48101e-05 41.6193C0.00264128 39.4127 0.880402 37.2972 2.44096 35.7363C4.00151 34.1754 6.11757 33.2965 8.32539 33.2921C12.8925 33.302 16.608 37.0712 16.5916 41.6751C16.5872 43.8809 15.7088 45.9951 14.1485 47.5551C12.5883 49.1151 10.4732 49.9938 8.26621 49.999ZM83.7666 49.999C81.559 50.0034 79.4396 49.1334 77.8725 47.5795C76.3053 46.0255 75.4181 43.9143 75.405 41.708C75.382 37.1008 79.0811 33.3184 83.6416 33.2954C85.8481 33.2919 87.9661 34.1618 89.5325 35.715C91.0988 37.2681 91.986 39.378 91.9999 41.5831C92.0262 46.1871 88.3238 49.9727 83.7666 49.999Z" fill="black"/>
  <path d="M8.32539 33.2921C12.8925 33.302 16.608 37.0712 16.5916 41.6751C16.5872 43.8809 15.7088 45.9951 14.1485 47.5551L13.8494 47.8396C12.3234 49.2214 10.3351 49.9941 8.26621 49.999L7.84068 49.9874C3.47382 49.7529 -0.0124992 46.0759 3.48101e-05 41.6193C0.00247829 39.5507 0.774071 37.5621 2.15628 36.0355L2.44096 35.7363C4.00151 34.1754 6.11757 33.2965 8.32539 33.2921ZM83.6416 33.2954C85.8481 33.2919 87.9661 34.1618 89.5325 35.715C91.0988 37.2681 91.986 39.378 91.9999 41.5831C92.0262 46.1871 88.3238 49.9727 83.7666 49.999L83.3533 49.9892C81.4332 49.898 79.6029 49.1469 78.1729 47.8629L77.8725 47.5795C76.4035 46.1227 75.5314 44.176 75.4174 42.1207L75.405 41.708C75.382 37.1008 79.0811 33.3184 83.6416 33.2954ZM8.32494 34.2118C6.36144 34.2162 4.47946 34.9983 3.09155 36.3865C1.79008 37.6885 1.0227 39.4239 0.929915 41.2533L0.920032 41.6205C0.908311 45.7204 4.2195 49.0685 8.26564 49.0787C10.2287 49.0736 12.1102 48.2925 13.4981 46.9048C14.8862 45.5169 15.6675 43.6359 15.6714 41.6735V41.6717L15.6634 41.2892C15.4785 37.3628 12.2483 34.2211 8.32494 34.2118ZM83.6444 34.2145C79.6035 34.2358 76.3049 37.5935 76.3249 41.7022L76.3365 42.0695C76.4379 43.8984 77.2134 45.6302 78.5206 46.9264C79.9144 48.3084 81.7988 49.0819 83.7621 49.0787C87.801 49.0548 91.1029 45.6942 91.0799 41.5891L91.0682 41.2219C90.9661 39.394 90.1906 37.6632 88.8841 36.3677C87.4908 34.9862 85.607 34.2117 83.6444 34.2145ZM35.561 25.0602C35.561 20.9607 32.2405 17.6262 28.1849 17.6262C24.1294 17.6265 20.8096 20.9609 20.8096 25.0602C20.8096 29.1595 24.1293 32.4938 28.1849 32.4941L28.1853 33.4137L27.759 33.4028C23.5267 33.1854 20.1162 29.7498 19.9004 25.4894L19.8895 25.0602C19.8895 20.4596 23.6149 16.7068 28.1853 16.7068L28.6107 16.7176C32.9846 16.9418 36.481 20.6033 36.481 25.0602L36.4702 25.4885C36.2473 29.8886 32.6097 33.4137 28.1853 33.4137L28.1849 32.4941C32.2373 32.4941 35.561 29.1563 35.561 25.0602Z" fill="white"/>
  <path d="M68.2174 17.1931C65.9618 16.4898 63.5516 16.1974 61.1875 15.941C57.5312 15.5467 56.0746 14.1205 55.4564 10.4597C55.1079 8.4157 54.6212 6.31912 53.7368 4.46243C52.05 0.929788 48.0977 -0.654151 44.1291 0.249548C40.7752 1.01523 37.9903 4.3507 37.8357 7.77489C37.6582 11.6789 39.894 15.0143 43.7345 16.1645C45.5594 16.7133 47.4993 16.9861 49.4031 17.1274C52.8983 17.3804 54.0656 18.4221 55.0092 20.0126C55.6077 21.0182 56.1831 22.0073 56.1831 24.9978C56.1831 27.9915 55.6011 28.9806 55.0092 29.9829C54.0656 31.5734 52.8983 32.6118 49.4031 32.8714C47.496 33.0095 45.5561 33.2855 43.7345 33.8343C39.894 34.9877 37.6582 38.3166 37.8357 42.2272C37.9903 45.6481 40.7785 48.9836 44.1291 49.7492C48.0977 50.6562 52.05 49.069 53.7368 45.5364C54.6245 43.683 55.1079 41.5831 55.4564 39.5391C56.0779 35.8783 57.5345 34.4554 61.1875 34.0577C63.5549 33.8014 65.9618 33.5057 68.2174 32.8024C71.6402 31.7344 73.6985 28.5435 73.6985 24.9978C73.6985 21.4553 71.6402 18.2677 68.2174 17.1931Z" fill="#F44250"/>
</svg>
