<svg width="60" height="54" viewBox="0 0 60 54" fill="none" xmlns="http://www.w3.org/2000/svg">
<path d="M30 32.2527C32.8819 32.2527 35.2182 29.901 35.2182 27.0001C35.2182 24.0991 32.8819 21.7475 30 21.7475C27.1181 21.7475 24.7818 24.0991 24.7818 27.0001C24.7818 29.901 27.1181 32.2527 30 32.2527Z" fill="#61DAFB"/>
<path d="M30 32.2527C32.8819 32.2527 35.2182 29.901 35.2182 27.0001C35.2182 24.0991 32.8819 21.7475 30 21.7475C27.1181 21.7475 24.7818 24.0991 24.7818 27.0001C24.7818 29.901 27.1181 32.2527 30 32.2527Z" stroke="#61DAFB" stroke-width="4"/>
<path d="M30 37.7614C45.464 37.7614 58 32.9434 58 27C58 21.0567 45.464 16.2386 30 16.2386C14.536 16.2386 2 21.0567 2 27C2 32.9434 14.536 37.7614 30 37.7614Z" stroke="#61DAFB" stroke-width="4"/>
<path d="M20.7414 32.3807C28.4734 45.8612 38.8866 54.3803 44 51.4086C49.1134 48.437 46.9906 35.0998 39.2586 21.6193C31.5266 8.13878 21.1134 -0.38032 16 2.59136C10.8866 5.56305 13.0094 18.9002 20.7414 32.3807Z" stroke="#61DAFB" stroke-width="4"/>
<path d="M20.7414 21.6193C13.0094 35.0998 10.8866 48.4369 16 51.4086C21.1134 54.3803 31.5266 45.8612 39.2586 32.3807C46.9906 18.9002 49.1134 5.56303 44 2.59135C38.8866 -0.380336 28.4734 8.13876 20.7414 21.6193Z" stroke="#61DAFB" stroke-width="4"/>
</svg>
