<svg width="53" height="50" viewBox="0 0 53 50" fill="none" xmlns="http://www.w3.org/2000/svg">
<path d="M36.7234 34.9196C38.6792 34.7184 40.163 33.0429 40.0955 31.0321C40.0282 29.0215 38.342 27.4128 36.3187 27.4128H36.1839C34.0929 27.4799 32.4743 29.2225 32.5418 31.3001C32.6093 32.3056 33.0138 33.1768 33.6208 33.78C31.3278 38.2708 27.8206 41.5549 22.56 44.3029C18.9854 46.1795 15.276 46.8498 11.5666 46.3808C8.53155 45.9785 6.17098 44.6382 4.68698 42.4262C2.52888 39.1421 2.32662 35.5897 4.14766 32.0375C5.42919 29.4905 7.45229 27.6138 8.73382 26.6755C8.46406 25.8042 8.05931 24.3297 7.85704 23.2574C-1.92249 30.2949 -0.910733 39.8123 2.05685 44.3029C4.28244 47.6542 8.80131 49.7319 13.7922 49.7319C15.141 49.7319 16.4898 49.5978 17.8388 49.2629C26.4718 47.5872 33.014 42.4932 36.7234 34.9196ZM48.5937 26.6086C43.4679 20.6434 35.9141 17.3593 27.2811 17.3593H26.2021C25.5951 16.1529 24.3135 15.3485 22.8972 15.3485H22.7623C20.6717 15.4155 19.0531 17.1581 19.1204 19.236C19.1879 21.2466 20.8739 22.8552 22.8972 22.8552H23.032C24.5158 22.7882 25.7973 21.8498 26.3369 20.5763H27.5509C32.6768 20.5763 37.5327 22.0508 41.9168 24.9329C45.2889 27.1448 47.717 30.0269 49.0658 33.512C50.2123 36.327 50.1448 39.075 48.9308 41.421C47.0425 44.9731 43.8726 46.9169 39.691 46.9169C36.9932 46.9169 34.4303 46.1125 33.0813 45.5093C32.3395 46.1795 30.9905 47.2518 30.0462 47.9223C32.9465 49.2627 35.9141 50 38.7467 50C45.2214 50 50.0101 46.4476 51.8311 42.8954C53.7869 39.0079 53.6519 32.3056 48.5937 26.6086ZM14.3317 36.0587C14.3992 38.0696 16.0853 39.678 18.1086 39.678H18.2436C20.3344 39.6111 21.953 37.8684 21.8855 35.7907C21.8182 33.7798 20.1319 32.1714 18.1086 32.1714H17.9738C17.8388 32.1714 17.6364 32.1714 17.5018 32.2383C14.7365 27.6807 13.5899 22.7211 13.9947 17.3591C14.2642 13.3376 15.6133 9.85233 17.9738 6.97022C19.9297 4.49032 23.7065 3.2839 26.2696 3.21704C33.4186 3.0829 36.4534 11.93 36.6559 15.4824C37.5327 15.6834 39.0165 16.1527 40.0282 16.4878C39.2188 5.63008 32.4743 0 25.9998 0C19.9297 0 14.3317 4.35659 12.1059 10.7909C9.00358 19.3699 11.0269 27.6138 14.8038 34.1152C14.4667 34.5843 14.2642 35.3214 14.3317 36.0587Z" fill="#764ABC"/>
</svg>
