<svg width="50" height="50" viewBox="0 0 50 50" fill="none" xmlns="http://www.w3.org/2000/svg">
  <path d="M38.1025 0.014126C31.5743 -0.291854 26.0848 4.4091 25.1481 10.6029C25.1111 10.8903 25.0554 11.1684 25.0091 11.4466C23.5532 19.161 16.7747 25.0024 8.63309 25.0024C5.73066 25.0024 3.00443 24.2607 0.630559 22.9625C0.343098 22.8049 0 23.0089 0 23.3334V50H24.9999V31.2519C24.9999 27.8026 27.8001 25.0024 31.2498 25.0024H37.4997C44.575 25.0024 50.2685 19.1332 49.9902 11.9937C49.7399 5.56811 44.5287 0.320106 38.1025 0.014126Z" fill="black"/>
  <path d="M25.1481 10.6029C26.0848 4.4091 31.5743 -0.291854 38.1025 0.014126C44.5287 0.320106 49.7399 5.56811 49.9902 11.9937C50.2641 19.0216 44.7514 24.8186 37.8303 24.998L37.4997 25.0024L37.4996 23.1672C43.4673 23.1672 48.2587 18.3006 48.1809 12.3497L48.1734 12.0657C47.9608 6.60709 43.5162 2.1086 38.0167 1.84674C32.4225 1.58529 27.7424 5.6104 26.9456 10.8795C26.9026 11.1991 26.8334 11.5622 26.8022 11.7499L26.7991 11.7701L26.7951 11.7898C25.1768 20.3647 17.6526 26.8368 8.63326 26.8369C6.22714 26.8369 3.92725 26.3762 1.81818 25.54V48.1649H23.1818V31.2516C23.1819 26.7732 26.8117 23.1673 31.2496 23.1672L31.2498 25.0024L31.0884 25.0043C27.7133 25.0899 24.9999 27.8566 24.9999 31.2519V50H0V23.3334C0 23.0089 0.343098 22.8049 0.630559 22.9625L0.854048 23.0825C3.10007 24.2668 5.651 24.957 8.36159 25.0002L8.63309 25.0024C16.7746 25.0023 23.5535 19.1605 25.0093 11.4462C25.044 11.2377 25.0837 11.0292 25.1172 10.8168L25.1481 10.6029ZM37.4996 23.1672L37.4997 25.0024H31.2498L31.2496 23.1672H37.4996Z" fill="white"/>
</svg>
