<svg width="68" height="50" viewBox="0 0 68 50" fill="none" xmlns="http://www.w3.org/2000/svg">
<path d="M57.7881 28.743C55.4506 28.7552 53.4192 29.3154 51.7181 30.1435C51.094 28.9135 50.4699 27.8175 50.3597 27.0138C50.2373 26.0761 50.0905 25.5037 50.2373 24.3834C50.3842 23.263 51.045 21.6677 51.0328 21.5459C51.0206 21.4241 50.8859 20.8518 49.5398 20.8396C48.1936 20.8274 47.031 21.0953 46.8964 21.4485C46.7618 21.8016 46.5048 22.6054 46.3335 23.4335C46.101 24.6513 43.6412 28.9988 42.2338 31.276C41.781 30.3871 41.3894 29.6077 41.3037 28.9866C41.1814 28.0489 41.0345 27.4765 41.1814 26.3562C41.3282 25.2358 41.9891 23.6405 41.9768 23.5187C41.9646 23.397 41.83 22.8246 40.4838 22.8124C39.1376 22.8002 37.9751 23.0681 37.8404 23.4213C37.7058 23.7745 37.559 24.6026 37.2775 25.4063C36.996 26.21 33.7285 33.4681 32.8719 35.3435C32.4313 36.3055 32.052 37.0727 31.7827 37.5964C31.7827 37.5964 31.7705 37.6329 31.7338 37.6938C31.5013 38.1444 31.3666 38.3879 31.3666 38.3879C31.3666 38.3879 31.3666 38.3879 31.3666 38.4001C31.1831 38.7289 30.9873 39.0334 30.8894 39.0334C30.8159 39.0334 30.6813 38.1566 30.9138 36.9631C31.4034 34.4423 32.5659 30.521 32.5537 30.3871C32.5537 30.314 32.774 29.632 31.795 29.2789C30.8404 28.9257 30.4978 29.5103 30.4121 29.5103C30.3264 29.5103 30.2652 29.7173 30.2652 29.7173C30.2652 29.7173 31.3299 25.3089 28.2338 25.3089C26.3002 25.3089 23.6323 27.4157 22.3107 29.3154C21.4785 29.766 19.704 30.728 17.8071 31.7632C17.0851 32.165 16.3386 32.5669 15.6411 32.9444C15.5921 32.8957 15.5431 32.8348 15.4942 32.7861C11.7494 28.8039 4.82283 25.9908 5.11654 20.6447C5.22668 18.6963 5.89975 13.5816 18.419 7.37084C28.7233 2.31701 36.9226 3.71747 38.3422 6.82283C40.3737 11.2556 33.9488 19.4878 23.3019 20.6813C19.239 21.1319 17.1096 19.5731 16.5711 18.9886C16.0082 18.3797 15.9225 18.3431 15.7145 18.4649C15.3718 18.6476 15.5921 19.1956 15.7145 19.5122C16.0327 20.3403 17.3421 21.8016 19.5572 22.5201C21.5152 23.1534 26.2757 23.5066 32.0397 21.2902C38.489 18.8059 43.531 11.901 42.0502 6.11652C40.5695 0.24677 30.7792 -1.68952 21.5152 1.58634C16.0082 3.5348 10.0361 6.60363 5.74066 10.598C0.637497 15.3474 -0.170198 19.4757 0.160223 21.2049C1.34729 27.3426 9.85257 31.3369 13.2547 34.2962C13.0834 34.3936 12.9243 34.4788 12.7896 34.5519C11.0886 35.3922 4.60255 38.7655 2.98716 42.3336C1.15149 46.3766 3.28086 49.275 4.68821 49.6647C9.05711 50.8703 13.5484 48.7026 15.9592 45.1223C18.3701 41.542 18.0764 36.8901 16.9627 34.7589C16.9505 34.7346 16.9383 34.7102 16.9138 34.6859C17.3543 34.4301 17.8071 34.1622 18.2477 33.9065C19.1166 33.395 19.9732 32.9201 20.7075 32.5304C20.2914 33.6629 19.9855 35.0147 19.8386 36.9631C19.6551 39.2526 20.5974 42.224 21.8334 43.3931C22.3841 43.9045 23.0327 43.9167 23.4488 43.9167C24.8928 43.9167 25.5414 42.7233 26.2635 41.3106C27.1446 39.5814 27.9401 37.572 27.9401 37.572C27.9401 37.572 26.9488 43.0034 29.6411 43.0034C30.6201 43.0034 31.6114 41.7369 32.052 41.0914C32.052 41.1036 32.052 41.1036 32.052 41.1036C32.052 41.1036 32.0764 41.0671 32.1254 40.9818C32.2233 40.8235 32.2845 40.7261 32.2845 40.7261C32.2845 40.7261 32.2845 40.7139 32.2845 40.7017C32.6761 40.0198 33.5572 38.4732 34.8667 35.9036C36.5555 32.5913 38.1831 28.4508 38.1831 28.4508C38.1831 28.4508 38.33 29.4615 38.8317 31.1421C39.1254 32.1285 39.7373 33.2123 40.2268 34.2596C39.8352 34.8076 39.5904 35.1121 39.5904 35.1121C39.5904 35.1121 39.5904 35.1121 39.6027 35.1243C39.2845 35.5383 38.9418 35.9889 38.5625 36.4273C37.2285 38.0104 35.6376 39.8249 35.4174 40.3486C35.1604 40.9697 35.2215 41.4202 35.7111 41.7856C36.066 42.0535 36.7023 42.09 37.3509 42.0535C38.5502 41.9682 39.3946 41.676 39.8107 41.4933C40.4593 41.2619 41.2181 40.9088 41.9279 40.3851C43.2373 39.4231 44.0328 38.047 43.9593 36.2325C43.9226 35.2339 43.5922 34.2353 43.1884 33.2976C43.3107 33.1271 43.4209 32.9566 43.5433 32.7861C45.6115 29.7782 47.2146 26.478 47.2146 26.478C47.2146 26.478 47.3615 27.4887 47.8632 29.1693C48.108 30.0217 48.6097 30.9472 49.0503 31.8484C47.1045 33.4194 45.9052 35.246 45.4768 36.4395C44.7058 38.6559 45.3055 39.6544 46.4436 39.8858C46.9576 39.9954 47.6919 39.7519 48.2303 39.5205C48.9157 39.3013 49.7234 38.9238 50.4943 38.3636C51.8038 37.4015 53.0643 36.062 52.9908 34.2475C52.9541 33.4194 52.7339 32.6034 52.4279 31.8119C54.08 31.1299 56.2094 30.7524 58.9262 31.069C64.7514 31.751 65.9017 35.3678 65.6815 36.8901C65.4612 38.4123 64.2374 39.2404 63.8335 39.4961C63.4297 39.7519 63.2951 39.8371 63.3318 40.0198C63.3808 40.2877 63.5766 40.2755 63.9192 40.2268C64.3965 40.1416 66.9787 38.9968 67.0888 36.1959C67.2724 32.6156 63.8458 28.7065 57.7881 28.743ZM12.8508 43.8193C10.9173 45.9139 8.22494 46.7054 7.06235 46.0357C5.81409 45.3172 6.3036 42.224 8.67774 40.0076C10.1218 38.6559 11.9819 37.4015 13.218 36.6343C13.4994 36.4638 13.9155 36.2203 14.4173 35.9158C14.5029 35.8671 14.5519 35.8428 14.5519 35.8428C14.6498 35.7819 14.7477 35.721 14.8456 35.6601C15.7145 38.8263 14.8823 41.6151 12.8508 43.8193ZM26.9243 34.2962C26.2512 35.928 24.8439 40.105 23.9872 39.8736C23.253 39.6788 22.8002 36.5125 23.8404 33.3828C24.3666 31.8119 25.4803 29.9365 26.1289 29.2058C27.1813 28.0367 28.3439 27.647 28.6254 28.122C28.9803 28.743 27.3404 33.2732 26.9243 34.2962ZM38.538 39.8249C38.2565 39.9711 37.9873 40.0685 37.8649 39.9954C37.7793 39.9467 37.9873 39.7519 37.9873 39.7519C37.9873 39.7519 39.4436 38.1931 40.0188 37.4868C40.3492 37.0727 40.7408 36.5856 41.1569 36.0376C41.1569 36.0863 41.1569 36.1472 41.1569 36.1959C41.1569 38.0591 39.3457 39.3135 38.538 39.8249ZM47.4961 37.7912C47.288 37.6451 47.3247 37.158 48.0223 35.6357C48.2915 35.039 48.9279 34.0404 50.0171 33.0784C50.1394 33.4681 50.2251 33.8456 50.2129 34.1987C50.2006 36.5491 48.5118 37.4259 47.4961 37.7912Z" fill="#CD6799"/>
</svg>
