<svg width="51" height="50" viewBox="0 0 51 50" fill="none" xmlns="http://www.w3.org/2000/svg">
<path d="M0.5 0H50.5V50H0.5V0Z" fill="#017ACB"/>
<path d="M24.5078 18.5156H26.9063V22.6562H20.4219V41.0781L20.25 41.125C20.0156 41.1875 16.9297 41.1875 16.2656 41.1172L15.7344 41.0703V22.6562H9.25V18.5156L11.3047 18.4922C12.4297 18.4766 15.3203 18.4766 17.7266 18.4922C20.1328 18.5078 23.1797 18.5156 24.5078 18.5156ZM42.8126 39.125C41.8594 40.1328 40.836 40.6953 39.1329 41.1562C38.3907 41.3594 38.2657 41.3672 36.5938 41.3594C34.9219 41.3516 34.7891 41.3516 33.9766 41.1406C31.875 40.6016 30.1797 39.5469 29.0235 38.0547C28.6953 37.6328 28.1563 36.7578 28.1563 36.6484C28.1563 36.6172 28.2344 36.5469 28.336 36.5C28.4375 36.4531 28.6485 36.3203 28.8203 36.2188C28.9922 36.1172 29.3047 35.9297 29.5157 35.8203C29.7266 35.7109 30.336 35.3516 30.8672 35.0312C31.3985 34.7109 31.8829 34.4531 31.9375 34.4531C31.9922 34.4531 32.0938 34.5625 32.1719 34.6953C32.6407 35.4844 33.7344 36.4922 34.5079 36.8359C34.9844 37.0391 36.0391 37.2656 36.5469 37.2656C37.0157 37.2656 37.875 37.0625 38.336 36.8516C38.8282 36.625 39.0782 36.3984 39.3751 35.9453C39.5782 35.625 39.6016 35.5391 39.5938 34.9297C39.5938 34.3672 39.5626 34.2109 39.4063 33.9531C38.9688 33.2344 38.375 32.8594 35.9688 31.7969C33.4844 30.6953 32.3672 30.0391 31.461 29.1562C30.7891 28.5 30.6563 28.3203 30.2344 27.5C29.6875 26.4453 29.6172 26.1016 29.6094 24.5312C29.6016 23.4297 29.625 23.0703 29.7422 22.6953C29.9063 22.1328 30.4375 21.0469 30.6797 20.7734C31.1797 20.1875 31.3594 20.0078 31.711 19.7187C32.7735 18.8437 34.4297 18.2656 36.0157 18.2109C36.1954 18.2109 36.7891 18.2422 37.3438 18.2812C38.9376 18.4141 40.0235 18.8047 41.0704 19.6406C41.8594 20.2656 43.0547 21.7344 42.9376 21.9297C42.8594 22.0469 39.7422 24.125 39.5391 24.1875C39.4141 24.2266 39.3282 24.1797 39.1563 23.9766C38.0938 22.7031 37.6641 22.4297 36.6329 22.3672C35.8985 22.3203 35.5079 22.4062 35.0157 22.7344C34.5 23.0781 34.25 23.6016 34.25 24.3281C34.2579 25.3906 34.6641 25.8906 36.1641 26.6328C37.1329 27.1094 37.961 27.5 38.0235 27.5C38.1172 27.5 40.1251 28.5 40.6485 28.8125C43.086 30.2422 44.0782 31.7109 44.336 34.2422C44.5235 36.1484 43.9844 37.8906 42.8126 39.125Z" fill="white"/>
</svg>
