<svg width="49" height="50" viewBox="0 0 49 50" fill="none" xmlns="http://www.w3.org/2000/svg">
<path d="M48.8379 7.40048L25.8201 49.3473C25.3448 50.2134 24.1239 50.2185 23.6415 49.3567L0.167419 7.40438C-0.358183 6.46533 0.429837 5.3277 1.47415 5.51808L24.5166 9.71534C24.6636 9.74211 24.8142 9.74185 24.9611 9.71456L47.5216 5.52393C48.5624 5.33062 49.3541 6.45948 48.8379 7.40048Z" fill="url(#paint0_linear_11_201)"/>
<path d="M35.4929 0.0123104L18.4592 3.4139C18.3231 3.44107 18.1997 3.51357 18.1084 3.62C18.0172 3.72642 17.9632 3.86074 17.955 4.00183L16.9073 22.037C16.9015 22.1359 16.9184 22.2348 16.9567 22.3259C16.9951 22.417 17.0537 22.4977 17.1279 22.5617C17.2022 22.6256 17.29 22.6711 17.3845 22.6944C17.479 22.7177 17.5776 22.7182 17.6723 22.6959L22.4148 21.5806C22.8585 21.4762 23.2595 21.8745 23.1682 22.3292L21.7592 29.3608C21.6645 29.8341 22.1003 30.2386 22.5538 30.0982L25.4831 29.1913C25.9371 29.0509 26.3735 29.4566 26.2774 29.9302L24.0383 40.9752C23.8982 41.6661 24.7999 42.0428 25.1758 41.4505L25.4272 41.0549L39.3072 12.8247C39.5398 12.3521 39.1388 11.8131 38.6296 11.9134L33.7478 12.8735C33.2892 12.9636 32.8989 12.5282 33.0283 12.071L36.2145 0.814624C36.344 0.356215 35.952 -0.0793714 35.4929 0.0123104Z" fill="url(#paint1_linear_11_201)"/>
<defs>
<linearGradient id="paint0_linear_11_201" x1="-0.40572" y1="3.826" x2="28.9321" y2="38.6234" gradientUnits="userSpaceOnUse">
<stop stop-color="#41D1FF"/>
<stop offset="1" stop-color="#BD34FE"/>
</linearGradient>
<linearGradient id="paint1_linear_11_201" x1="26.6522" y1="0.93591" x2="31.9521" y2="36.6093" gradientUnits="userSpaceOnUse">
<stop stop-color="#FFEA83"/>
<stop offset="0.083" stop-color="#FFDD35"/>
<stop offset="1" stop-color="#FFA800"/>
</linearGradient>
</defs>
</svg>
