<svg width="52" height="50" viewBox="0 0 52 50" fill="none" xmlns="http://www.w3.org/2000/svg">
<path d="M0.985222 17.4357C0.985222 17.4357 -0.256947 16.5484 1.23366 15.3635L4.70655 12.2861C4.70655 12.2861 5.70029 11.25 6.75096 12.1527L38.7989 36.1979V47.7281C38.7989 47.7281 38.7834 49.5386 36.4388 49.3386L0.985222 17.4357Z" fill="#2489CA"/>
<path d="M9.24566 24.8678L0.985223 32.3101C0.985223 32.3101 0.136406 32.9358 0.985223 34.054L4.82042 37.511C4.82042 37.511 5.73135 38.4804 7.07703 37.3776L15.8343 30.797L9.24566 24.8678Z" fill="#1070B3"/>
<path d="M23.748 24.9293L38.8973 13.4658L38.799 1.99712C38.799 1.99712 38.152 -0.505874 35.9937 0.796916L15.8343 18.9796L23.748 24.9293Z" fill="#0877B9"/>
<path d="M36.4389 49.3541C37.3187 50.2465 38.3849 49.9542 38.3849 49.9542L50.1907 44.1891C51.702 43.1684 51.4898 41.9015 51.4898 41.9015V7.47507C51.4898 5.96199 49.9267 5.43882 49.9267 5.43882L39.6944 0.5508C37.4585 -0.818667 35.9937 0.796916 35.9937 0.796916C35.9937 0.796916 37.8777 -0.546904 38.799 1.99712L38.799 47.5179C38.799 47.8307 38.7317 48.1385 38.5971 48.4155C38.328 48.954 37.7431 49.4567 36.3405 49.2464L36.4389 49.3541Z" fill="#3C99D4"/>
</svg>
