<svg width="44" height="50" viewBox="0 0 44 50" fill="none" xmlns="http://www.w3.org/2000/svg">
<path d="M22 0L0 12.5V37.5L22 50L44 37.5V12.5L22 0Z" fill="white"/>
<path d="M3.92876 36.6375L21.274 46.4916V38.8166L10.4669 32.8458L3.92876 36.6375ZM2.74227 35.5583V14.95L9.08962 18.6291V31.875L2.74227 35.5583ZM40.1418 36.6375L22.7966 46.4916V38.8166L33.6037 32.8458L40.1418 36.6375ZM41.3284 35.5583V14.95L34.981 18.6291V31.875L41.3284 35.5583ZM40.5858 13.6166L22.7966 3.5083V10.9291L34.1928 17.225L34.2799 17.275L40.5858 13.6166ZM3.48486 13.6166L21.274 3.5083V10.9291L9.87785 17.225L9.79073 17.275L3.48486 13.6166Z" fill="#8ED6FB"/>
<path d="M22.7965 37.0708L33.4584 31.1833V19.5166L22.7965 25.7V37.0708ZM21.274 37.0708L10.6121 31.1833V19.5166L21.274 25.7V37.0708ZM32.7365 18.1666L22.0332 12.2541L11.3298 18.1666L22.0332 24.375L32.7365 18.1666Z" fill="#1C78C0"/>
</svg>
